<?xml version="1.0" standalone="no"?>
<!DOCTYPE svg PUBLIC "-//W3C//DTD SVG 1.1//EN" "http://www.w3.org/Graphics/SVG/1.1/DTD/svg11.dtd" >
<svg xmlns="http://www.w3.org/2000/svg" xmlns:xlink="http://www.w3.org/1999/xlink" version="1.1">
<metadata>
Created by FontForge 20160407 at Tue Jun 14 01:18:29 2016
 By Jimmy Wärting
Copyright ben17 2014
</metadata>
<defs>
<font id="technicolour-3d" horiz-adv-x="280" >
  <font-face 
    font-family="technicolour 3d"
    font-weight="400"
    font-stretch="normal"
    units-per-em="1024"
    panose-1="0 0 4 0 0 0 0 0 0 0"
    ascent="819"
    descent="-205"
    x-height="264"
    cap-height="488"
    bbox="-56 -224 824 488"
    underline-thickness="51"
    underline-position="77"
    unicode-range="U+0020-201D"
  />
<missing-glyph horiz-adv-x="392" 
d="M244 69v77h-78v-77h78zM321 160v77h-155v-77h155zM244 250v77h-78v-77h78zM321 341v77h-77q-33 0 -55 -23q-23 -23 -23 -54h155zM0 0v488h488v-488h-488z" />
    <glyph glyph-name=".notdef" horiz-adv-x="392" 
d="M244 69v77h-78v-77h78zM321 160v77h-155v-77h155zM244 250v77h-78v-77h78zM321 341v77h-77q-33 0 -55 -23q-23 -23 -23 -54h155zM0 0v488h488v-488h-488z" />
    <glyph glyph-name="glyph1" horiz-adv-x="0" 
 />
    <glyph glyph-name="glyph2" horiz-adv-x="160" 
 />
    <glyph glyph-name="space" unicode=" " horiz-adv-x="168" 
 />
    <glyph glyph-name="exclam" unicode="!" horiz-adv-x="168" 
d="M72 16v8h8v-8h-8zM128 16v8h8v-8h-8zM80 24v8h8v-8h-8zM112 8v24h-24v24h-24v-40h8v-8h40zM112 40v16h-16v-16h16zM120 64v8h8v-8h-8zM72 72v8h8v-8h-8zM128 72v8h8v-8h-8zM144 40v40h-8v8h-40v-24h24v-24h24zM72 128v8h8v-8h-8zM128 128v8h8v-8h-8zM80 136v8h8v-8h-8z
M112 120v24h-24v304h-24v-320h8v-8h40zM112 152v296h-16v-296h16zM120 456v8h8v-8h-8zM72 464v8h8v-8h-8zM128 464v8h8v-8h-8zM144 152v320h-8v8h-40v-24h24v-304h24zM56 0v456h8v8h8v-8h16v16h-8v8h8v8h64v-344h-8v-8h-8v8h-16v-16h8v-8h-8v-8h-56v-40h8v-8h16v16h-8v8h8v8
h64v-64h-8v-8h-8v8h-16v-16h8v-8h-8v-8h-64z" />
    <glyph glyph-name="quotesingle" unicode="'" horiz-adv-x="224" 
d="M72 352v8h8v-8h-8zM184 352v8h8v-8h-8zM80 360v8h8v-8h-8zM64 400v8h8v-8h-8zM72 408v8h8v-8h-8zM128 408v8h8v-8h-8zM184 408v8h8v-8h-8zM136 416v8h8v-8h-8zM200 376v40h-8v8h-16v-16h8v-8h-8v-24h24zM168 400v24h-24v24h-24v-40h8v-8h40zM168 432v16h-16v-16h16z
M176 456v8h8v-8h-8zM128 464v8h8v-8h-8zM184 464v8h8v-8h-8zM200 432v40h-8v8h-40v-24h24v-24h24zM56 336v64h8v-48h8v-8h96v24h-80v48h-8v8h8v8h8v-56h72v16h-56v64h8v8h8v-8h16v16h-8v8h8v8h64v-120h-8v-8h-8v8h-16v-16h8v-8h-8v-8h-120z" />
    <glyph glyph-name="comma" unicode="," horiz-adv-x="224" 
d="M72 -40v8h8v-8h-8zM184 -40v8h8v-8h-8zM80 -32v8h8v-8h-8zM64 8v8h8v-8h-8zM72 16v8h8v-8h-8zM128 16v8h8v-8h-8zM184 16v8h8v-8h-8zM136 24v8h8v-8h-8zM200 -16v40h-8v8h-16v-16h8v-8h-8v-24h24zM168 8v24h-24v24h-24v-40h8v-8h40zM168 40v16h-16v-16h16zM176 64v8h8v-8
h-8zM128 72v8h8v-8h-8zM184 72v8h8v-8h-8zM200 40v40h-8v8h-40v-24h24v-24h24zM56 -56v64h8v-48h8v-8h96v24h-80v48h-8v8h8v8h8v-56h72v16h-56v64h8v8h8v-8h16v16h-8v8h8v8h64v-120h-8v-8h-8v8h-16v-16h8v-8h-8v-8h-120z" />
    <glyph glyph-name="hyphen" unicode="-" 
d="M72 128v8h8v-8h-8zM240 128v8h8v-8h-8zM80 136v8h8v-8h-8zM224 120v24h-136v24h-24v-40h8v-8h152zM224 152v16h-128v-16h128zM232 176v8h8v-8h-8zM72 184v8h8v-8h-8zM240 184v8h8v-8h-8zM256 152v40h-8v8h-152v-24h136v-24h24zM56 112v64h8v8h8v-8h16v16h-8v8h8v8h176
v-64h-8v-8h-8v8h-16v-16h8v-8h-8v-8h-176z" />
    <glyph glyph-name="period" unicode="." horiz-adv-x="168" 
d="M72 16v8h8v-8h-8zM128 16v8h8v-8h-8zM80 24v8h8v-8h-8zM112 8v24h-24v24h-24v-40h8v-8h40zM112 40v16h-16v-16h16zM120 64v8h8v-8h-8zM72 72v8h8v-8h-8zM128 72v8h8v-8h-8zM144 40v40h-8v8h-40v-24h24v-24h24zM56 0v64h8v8h8v-8h16v16h-8v8h8v8h64v-64h-8v-8h-8v8h-16
v-16h8v-8h-8v-8h-64z" />
    <glyph glyph-name="slash" unicode="/" horiz-adv-x="344" 
d="M80 16v8h8v-8h-8zM136 16v8h8v-8h-8zM88 24v8h8v-8h-8zM152 40v16h-24v-16h24zM136 72v8h8v-8h-8zM192 72v8h8v-8h-8zM176 64v24h-16v-24h16zM208 96v296h-24v-296h24zM192 408v8h8v-8h-8zM248 408v8h8v-8h-8zM232 400v24h-16v-24h16zM264 432v16h-24v-16h24zM296 456v8
h8v-8h-8zM248 464v8h8v-8h-8zM304 464v8h8v-8h-8zM64 0v8h8v8h8v-8h40v24h-24v8h24v24h8v8h8v-8h16v16h-8v8h8v8h24v304h8v8h8v-8h16v16h-8v8h8v8h24v24h8v8h8v-8h16v16h-8v8h8v8h64v-8h-8v-8h-8v8h-40v-24h24v-8h-24v-24h-8v-8h-8v8h-16v-16h8v-8h-8v-8h-24v-304h-8v-8h-8
v8h-16v-16h8v-8h-8v-8h-24v-24h-8v-8h-8v8h-16v-16h8v-8h-8v-8h-64z" />
    <glyph glyph-name="zero" unicode="0" horiz-adv-x="336" 
d="M128 16v8h8v-8h-8zM240 16v8h8v-8h-8zM136 24v8h8v-8h-8zM256 40v16h-24v-16h24zM120 64v8h8v-8h-8zM72 72v8h8v-8h-8zM128 72v8h8v-8h-8zM240 72v8h8v-8h-8zM296 72v8h8v-8h-8zM80 80v8h8v-8h-8zM280 64v24h-16v-24h16zM224 8v24h-80v48h-8v8h-48v304h-24v-320h8v-8h48
v-48h8v-8h96zM288 400v8h8v-8h-8zM72 408v8h8v-8h-8zM128 408v8h8v-8h-8zM240 408v8h8v-8h-8zM296 408v8h8v-8h-8zM112 400v24h-16v-24h16zM248 416v8h8v-8h-8zM144 432v16h-24v-16h24zM224 40v24h8v8h8v-8h16v16h-8v8h8v8h24v296h-56v56h-72v-24h-8v-8h-8v8h-16v-16h8v-8
h-8v-8h-24v-296h56v-56h72zM232 456v8h8v-8h-8zM128 464v8h8v-8h-8zM240 464v8h8v-8h-8zM312 96v320h-8v8h-48v48h-8v8h-96v-24h80v-48h8v-8h48v-304h24zM112 0v56h-56v344h8v8h8v-8h16v16h-8v8h8v8h24v24h8v8h8v-8h16v16h-8v8h8v8h120v-56h56v-344h-8v-8h-8v8h-16v-16h8v-8
h-8v-8h-24v-24h-8v-8h-8v8h-16v-16h8v-8h-8v-8h-120z" />
    <glyph glyph-name="one" unicode="1" horiz-adv-x="336" 
d="M72 16v8h8v-8h-8zM184 16v8h8v-8h-8zM296 16v8h8v-8h-8zM80 24v8h8v-8h-8zM280 8v24h-80v-8h-8v8h-16v-16h8v-8h96zM64 64v8h8v-8h-8zM288 64v8h8v-8h-8zM72 72v8h8v-8h-8zM296 72v8h8v-8h-8zM72 352v8h8v-8h-8zM128 352v8h8v-8h-8zM80 360v8h8v-8h-8zM144 376v16h-24
v-16h24zM128 408v8h8v-8h-8zM184 408v8h8v-8h-8zM168 400v24h-16v-24h16zM200 40v376h-8v8h-16v-16h8v-8h-8v-360h24zM112 344v24h-24v80h-24v-96h8v-8h40zM112 376v24h8v8h8v-8h16v16h-8v8h8v8h24v16h-72v-72h16zM176 456v8h8v-8h-8zM72 464v8h8v-8h-8zM184 464v8h8v-8h-8z
M200 432v40h-8v8h-96v-24h80v-24h24zM56 0v64h8v-48h8v-8h96v24h-80v48h-8v8h8v8h8v-56h72v352h-16v-24h-8v-8h-8v8h-16v-16h8v-8h-8v-8h-64v120h8v8h8v-8h16v16h-8v8h8v8h120v-448h72v24h8v-24h24v40h-8v8h8v8h8v-64h-8v-8h-8v8h-16v-16h8v-8h-8v-8h-232z" />
    <glyph glyph-name="two" unicode="2" horiz-adv-x="336" 
d="M72 16v8h8v-8h-8zM240 16v8h8v-8h-8zM296 16v8h8v-8h-8zM80 24v8h8v-8h-8zM280 8v24h-24v-8h-8v8h-16v-16h8v-8h40zM232 64v8h8v-8h-8zM184 72v8h8v-8h-8zM240 72v8h8v-8h-8zM192 80v8h8v-8h-8zM256 40v40h-8v8h-48v24h-24v-40h8v-8h48v-24h24zM280 40v72h-72v-16h56v-56
h16zM288 120v8h8v-8h-8zM184 128v8h8v-8h-8zM296 128v8h8v-8h-8zM312 40v96h-8v8h-96v-24h80v-80h24zM224 8v24h-136v136h-24v-152h8v-8h152zM72 184v8h8v-8h-8zM128 184v8h8v-8h-8zM112 176v24h-16v-24h16zM144 208v16h-24v-16h24zM128 240v8h8v-8h-8zM240 240v8h8v-8h-8z
M224 232v24h-72v-24h72zM256 264v16h-24v-16h24zM240 296v8h8v-8h-8zM296 296v8h8v-8h-8zM280 288v24h-16v-24h16zM72 352v8h8v-8h-8zM128 352v8h8v-8h-8zM80 360v8h8v-8h-8zM112 344v24h-24v24h-24v-40h8v-8h40zM112 376v16h-16v-16h16zM120 400v8h8v-8h-8zM288 400v8h8v-8
h-8zM72 408v8h8v-8h-8zM128 408v8h8v-8h-8zM240 408v8h8v-8h-8zM296 408v8h8v-8h-8zM144 376v40h-8v8h-40v-24h24v-24h24zM248 416v8h8v-8h-8zM232 456v8h8v-8h-8zM72 464v8h8v-8h-8zM240 464v8h8v-8h-8zM80 472v8h8v-8h-8zM56 0v176h8v8h8v-8h16v16h-8v8h8v8h24v24h8v8h8
v-8h16v16h-8v8h8v8h80v24h8v8h8v-8h16v16h-8v8h8v8h24v72h-56v56h-160v-40h8v-8h16v16h-8v8h8v8h64v-64h-8v-8h-8v8h-16v-16h8v-8h-8v-8h-64v120h8v8h8v-8h160v-48h8v-8h48v-80h24v96h-8v8h-48v48h-8v8h-160v8h176v-56h56v-120h-8v-8h-8v8h-16v-16h8v-8h-8v-8h-24v-24h-8v-8
h-8v8h-16v-16h8v-8h-8v-8h-80v-24h-8v-8h-8v8h-16v-16h8v-8h-8v-8h-24v-128h128v16h-56v64h8v8h8v-8h16v16h-8v8h8v8h120v-120h-8v-8h-8v8h-16v-16h8v-8h-8v-8h-232z" />
    <glyph glyph-name="three" unicode="3" horiz-adv-x="336" 
d="M72 16v8h8v-8h-8zM296 16v8h8v-8h-8zM80 24v8h8v-8h-8zM64 120v8h8v-8h-8zM72 128v8h8v-8h-8zM288 176v8h8v-8h-8zM128 184v8h8v-8h-8zM184 184v8h8v-8h-8zM240 184v8h8v-8h-8zM296 184v8h8v-8h-8zM136 192v8h8v-8h-8zM248 192v8h8v-8h-8zM168 176v24h-24v24h-24v-40h8
v-8h40zM168 208v16h-16v-16h16zM200 208v16h-24v-16h24zM128 240v8h8v-8h-8zM184 240v8h8v-8h-8zM240 240v8h8v-8h-8zM200 232v16h-8v8h-40v-24h24v8h8v-8h16zM224 232v24h-16v-24h16zM312 40v152h-8v8h-48v48h-8v8h-16v-16h8v-8h-8v-48h8v-8h48v-136h24zM256 264v16h-24
v-16h24zM240 296v8h8v-8h-8zM296 296v8h8v-8h-8zM280 288v24h-16v-24h16zM72 352v8h8v-8h-8zM128 352v8h8v-8h-8zM80 360v8h8v-8h-8zM112 344v24h-24v24h-24v-40h8v-8h40zM112 376v16h-16v-16h16zM120 400v8h8v-8h-8zM288 400v8h8v-8h-8zM72 408v8h8v-8h-8zM128 408v8h8v-8
h-8zM240 408v8h8v-8h-8zM296 408v8h8v-8h-8zM144 376v40h-8v8h-40v-24h24v-24h24zM248 416v8h8v-8h-8zM88 400v16h-8v8h8v24h-24v-40h8v-8h16zM232 456v8h8v-8h-8zM72 464v8h8v-8h-8zM240 464v8h8v-8h-8zM312 320v96h-8v8h-48v48h-8v8h-152v-24h136v-48h8v-8h48v-80h24z
M56 0v120h8v-104h8v-8h208v24h-192v104h-8v8h8v8h8v-112h184v128h-56v56h-16v-24h-8v-8h-8v8h-16v-16h8v-8h-8v-8h-64v64h8v8h8v-8h16v16h-8v8h8v8h80v24h8v8h8v-8h16v16h-8v8h8v8h24v72h-56v56h-128v-16h56v-64h-8v-8h-8v8h-16v-16h8v-8h-8v-8h-64v120h8v8h8v-8h16v16h-8v8
h8v8h176v-56h56v-120h-8v-8h-8v8h-16v-16h8v-8h-8v-8h-24v-72h56v-176h-8v-8h-8v8h-16v-16h8v-8h-8v-8h-232z" />
    <glyph glyph-name="four" unicode="4" horiz-adv-x="336" 
d="M184 16v8h8v-8h-8zM240 16v8h8v-8h-8zM192 24v8h8v-8h-8zM224 8v24h-24v80h-24v-96h8v-8h40zM224 40v72h-16v-72h16zM232 120v8h8v-8h-8zM184 128v8h8v-8h-8zM240 128v8h8v-8h-8zM256 40v96h-8v8h-40v-24h24v-80h24zM176 176v8h8v-8h-8zM128 184v8h8v-8h-8zM184 184v8h8
v-8h-8zM296 184v8h8v-8h-8zM136 192v8h8v-8h-8zM304 192v8h8v-8h-8zM200 120v16h-8v8h8v48h-8v8h-48v24h-24v-40h8v-8h48v-48h8v-8h16zM288 232v8h8v-8h-8zM72 240v8h8v-8h-8zM128 240v8h8v-8h-8zM184 240v8h8v-8h-8zM296 240v8h8v-8h-8zM80 248v8h8v-8h-8zM168 232v24h-16
v-24h16zM200 264v16h-24v-16h24zM184 296v8h8v-8h-8zM240 296v8h8v-8h-8zM224 288v24h-16v-24h16zM200 288v16h-8v8h8v24h-24v-40h8v-8h16zM224 320v16h-16v-16h16zM232 344v8h8v-8h-8zM184 352v8h8v-8h-8zM240 352v8h8v-8h-8zM256 320v40h-8v8h-40v-24h24v-24h24zM144 232
v16h-8v8h-48v136h-24v-152h8v-8h48v8h8v-8h16zM72 408v8h8v-8h-8zM128 408v8h8v-8h-8zM112 400v24h-16v-24h16zM88 400v16h-8v8h8v24h-24v-40h8v-8h16zM112 432v16h-16v-16h16zM120 456v8h8v-8h-8zM72 464v8h8v-8h-8zM128 464v8h8v-8h-8zM144 432v40h-8v8h-40v-24h24v-24h24
zM168 0v168h-56v56h-56v232h8v8h8v-8h16v16h-8v8h8v8h64v-64h-8v-8h-8v8h-16v-16h8v-8h-8v-8h-24v-128h72v80h8v8h8v-8h16v16h-8v8h8v8h64v-64h-8v-8h-8v8h-16v-16h8v-8h-8v-8h-24v-16h112v-64h-8v48h-8v8h-104v-8h-8v8h-16v-16h8v-8h104v-48h8v-8h-8v-8h-8v56h-128v-16h56
v-56h56v-120h-8v-8h-8v8h-16v-16h8v-8h-8v-8h-64z" />
    <glyph glyph-name="five" unicode="5" horiz-adv-x="336" 
d="M72 16v8h8v-8h-8zM240 16v8h8v-8h-8zM80 24v8h8v-8h-8zM224 8v24h-136v24h-24v-40h8v-8h152zM256 40v16h-24v-16h24zM72 72v8h8v-8h-8zM128 72v8h8v-8h-8zM240 72v8h8v-8h-8zM296 72v8h8v-8h-8zM112 64v24h-16v-24h16zM280 64v24h-16v-24h16zM88 64v16h-8v8h8v24h-24v-40
h8v-8h16zM112 96v16h-16v-16h16zM120 120v8h8v-8h-8zM72 128v8h8v-8h-8zM128 128v8h8v-8h-8zM144 96v40h-8v8h-40v-24h24v-24h24zM288 232v8h8v-8h-8zM72 240v8h8v-8h-8zM128 240v8h8v-8h-8zM240 240v8h8v-8h-8zM296 240v8h8v-8h-8zM80 248v8h8v-8h-8zM248 248v8h8v-8h-8z
M144 264v16h-24v-16h24zM232 288v8h8v-8h-8zM128 296v8h8v-8h-8zM240 296v8h8v-8h-8zM312 96v152h-8v8h-48v48h-8v8h-96v-24h80v-48h8v-8h48v-136h24zM184 352v8h8v-8h-8zM296 352v8h8v-8h-8zM192 360v8h8v-8h-8zM280 344v24h-80v24h-24v-40h8v-8h96zM184 408v8h8v-8h-8z
M240 408v8h8v-8h-8zM224 400v24h-16v-24h16zM112 232v24h-24v192h-24v-208h8v-8h40zM256 432v16h-24v-16h24zM280 376v72h-16v-24h-8v-8h-8v8h-16v-16h8v-8h-8v-8h-24v-16h72zM288 456v8h8v-8h-8zM72 464v8h8v-8h-8zM240 464v8h8v-8h-8zM296 464v8h8v-8h-8zM256 456v16h-8v8
h-152v-24h136v8h8v-8h16zM312 376v96h-8v8h-40v-24h24v-80h24zM56 0v120h8v8h8v-8h16v16h-8v8h8v8h64v-64h-8v-8h-8v8h-16v-16h8v-8h-8v-8h-24v-16h128v24h8v8h8v-8h16v16h-8v8h8v8h24v128h-56v56h-72v-24h-8v-8h-8v8h-16v-16h8v-8h-8v-8h-64v232h8v8h8v-8h16v16h-8v8h8v8
h232v-120h-8v-8h-8v8h-16v-16h8v-8h-8v-8h-120v64h8v8h8v-8h16v16h-8v8h8v8h24v16h-128v-184h16v24h8v8h8v-8h16v16h-8v8h8v8h120v-56h56v-176h-8v-8h-8v8h-16v-16h8v-8h-8v-8h-24v-24h-8v-8h-8v8h-16v-16h8v-8h-8v-8h-176z" />
    <glyph glyph-name="six" unicode="6" horiz-adv-x="336" 
d="M128 16v8h8v-8h-8zM296 16v8h8v-8h-8zM136 24v8h8v-8h-8zM120 64v8h8v-8h-8zM72 72v8h8v-8h-8zM128 72v8h8v-8h-8zM80 80v8h8v-8h-8zM128 184v8h8v-8h-8zM296 184v8h8v-8h-8zM136 192v8h8v-8h-8zM312 40v152h-8v8h-16v-16h8v-8h-8v-136h24zM288 232v8h8v-8h-8zM184 240v8
h8v-8h-8zM296 240v8h8v-8h-8zM192 248v8h8v-8h-8zM280 8v24h-136v48h-8v8h-48v192h-24v-208h8v-8h48v-48h8v-8h152zM280 40v128h-168v112h-16v-184h56v-56h128zM280 176v24h-136v80h-24v-96h8v-8h152zM280 208v16h-112v56h-16v-72h128zM176 288v8h8v-8h-8zM72 296v8h8v-8h-8
zM184 296v8h8v-8h-8zM112 288v24h-16v-24h16zM144 288v24h-24v-24h24zM312 208v40h-8v8h-104v48h-8v8h-40v-24h24v-48h8v-8h104v-24h24zM184 352v8h8v-8h-8zM296 352v8h8v-8h-8zM192 360v8h8v-8h-8zM144 320v72h-24v-72h24zM176 400v8h8v-8h-8zM128 408v8h8v-8h-8zM184 408
v8h8v-8h-8zM280 344v24h-80v48h-8v8h-40v-24h24v-48h8v-8h96zM144 400v16h-8v8h8v24h-24v-40h8v-8h16zM280 376v72h-128v-16h56v-56h72zM288 456v8h8v-8h-8zM128 464v8h8v-8h-8zM296 464v8h8v-8h-8zM312 376v96h-8v8h-152v-24h136v-80h24zM112 0v56h-56v232h8v8h8v-8h16v16
h-8v8h8v8h24v136h8v8h8v-8h16v16h-8v8h8v8h176v-120h-8v-8h-8v8h-16v-16h8v-8h-8v-8h-120v56h-16v-72h56v-56h112v-232h-8v-8h-8v8h-16v-16h8v-8h-8v-8h-176z" />
    <glyph glyph-name="seven" unicode="7" horiz-adv-x="336" 
d="M128 16v8h8v-8h-8zM184 16v8h8v-8h-8zM136 24v8h8v-8h-8zM168 8v24h-24v24h-24v-40h8v-8h40zM168 40v16h-16v-16h16zM128 72v8h8v-8h-8zM184 72v8h8v-8h-8zM168 64v24h-16v-24h16zM200 40v40h-8v8h-16v-16h8v-8h-8v-24h24zM200 96v72h-24v-72h24zM184 184v8h8v-8h-8z
M240 184v8h8v-8h-8zM224 176v24h-16v-24h16zM128 240v8h8v-8h-8zM184 240v8h8v-8h-8zM240 240v8h8v-8h-8zM136 248v8h8v-8h-8zM224 232v24h-24v-8h-8v8h-16v-16h8v-8h40zM256 208v40h-8v8h-16v-16h8v-8h-8v-24h24zM168 232v24h-24v24h-24v-40h8v-8h40zM168 264v16h-16v-16
h16zM256 264v16h-24v-16h24zM176 288v8h8v-8h-8zM128 296v8h8v-8h-8zM184 296v8h8v-8h-8zM240 296v8h8v-8h-8zM296 296v8h8v-8h-8zM200 264v40h-8v8h-40v-24h24v-24h24zM280 288v24h-16v-24h16zM72 352v8h8v-8h-8zM184 352v8h8v-8h-8zM80 360v8h8v-8h-8zM176 400v8h8v-8h-8z
M128 408v8h8v-8h-8zM184 408v8h8v-8h-8zM136 416v8h8v-8h-8zM168 344v24h-80v80h-24v-96h8v-8h96zM168 376v16h-56v56h-16v-72h72zM200 376v40h-8v8h-48v24h-24v-40h8v-8h48v-24h24zM288 456v8h8v-8h-8zM72 464v8h8v-8h-8zM128 464v8h8v-8h-8zM296 464v8h8v-8h-8zM144 456
v16h-8v8h-40v-24h24v8h8v-8h16zM312 320v152h-8v8h-152v-24h136v-136h24zM112 0v64h8v8h8v-8h16v16h-8v8h8v8h24v80h8v8h8v-8h16v16h-8v8h8v8h24v16h-112v64h8v8h8v-8h16v16h-8v8h8v8h64v-56h16v24h8v8h8v-8h16v16h-8v8h8v8h24v128h-128v-16h56v-64h-8v-8h-8v8h-16v-16h8v-8
h-8v-8h-120v120h8v8h8v-8h16v16h-8v8h8v8h232v-176h-8v-8h-8v8h-16v-16h8v-8h-8v-8h-24v-80h-8v-8h-8v8h-16v-16h8v-8h-8v-8h-24v-136h-8v-8h-8v8h-16v-16h8v-8h-8v-8h-64z" />
    <glyph glyph-name="eight" unicode="8" horiz-adv-x="392" 
d="M128 16v8h8v-8h-8zM296 16v8h8v-8h-8zM136 24v8h8v-8h-8zM312 40v16h-24v-16h24zM120 64v8h8v-8h-8zM72 72v8h8v-8h-8zM128 72v8h8v-8h-8zM296 72v8h8v-8h-8zM352 72v8h8v-8h-8zM80 80v8h8v-8h-8zM336 64v24h-16v-24h16zM240 184v8h8v-8h-8zM296 184v8h8v-8h-8zM248 192
v8h8v-8h-8zM232 232v8h8v-8h-8zM128 240v8h8v-8h-8zM240 240v8h8v-8h-8zM136 248v8h8v-8h-8zM280 8v24h-136v48h-8v8h-48v192h-24v-208h8v-8h48v-48h8v-8h152zM280 176v24h-24v48h-8v8h-104v24h-24v-40h8v-8h104v-48h8v-8h40zM280 208v72h-128v-16h112v-56h16zM312 208v72
h-24v-72h24zM280 40v24h8v8h8v-8h16v16h-8v8h8v8h24v184h-16v-80h-8v-8h-8v8h-16v-16h8v-8h-8v-8h-64v56h-112v56h-16v-184h56v-56h128zM344 288v8h8v-8h-8zM72 296v8h8v-8h-8zM128 296v8h8v-8h-8zM296 296v8h8v-8h-8zM352 296v8h8v-8h-8zM112 288v24h-16v-24h16zM144 288
v16h-8v8h-16v-16h8v-8h16zM280 288v24h-128v-24h128zM312 288v16h-8v8h-16v-16h8v-8h16zM368 96v208h-8v8h-40v-24h24v-192h24zM128 408v8h8v-8h-8zM184 408v8h8v-8h-8zM136 416v8h8v-8h-8zM200 432v16h-24v-16h24zM280 320v128h-72v-24h-8v-8h-8v8h-16v-16h8v-8h-8v-8h-56
v-72h160zM288 456v8h8v-8h-8zM184 464v8h8v-8h-8zM296 464v8h8v-8h-8zM312 320v152h-8v8h-96v-24h80v-136h24zM112 0v56h-56v232h8v8h8v-8h16v16h-8v8h8v8h24v80h8v8h8v-8h40v24h-24v8h24v24h8v8h8v-8h16v16h-8v8h8v8h120v-168h56v-232h-8v-8h-8v8h-16v-16h8v-8h-8v-8h-24
v-24h-8v-8h-8v8h-16v-16h8v-8h-8v-8h-176z" />
    <glyph glyph-name="nine" unicode="9" horiz-adv-x="336" 
d="M240 16v8h8v-8h-8zM296 16v8h8v-8h-8zM248 24v8h8v-8h-8zM280 8v24h-24v24h-24v-40h8v-8h40zM280 40v16h-16v-16h16zM240 72v8h8v-8h-8zM296 72v8h8v-8h-8zM280 64v24h-16v-24h16zM312 40v40h-8v8h-16v-16h8v-8h-8v-24h24zM184 184v8h8v-8h-8zM240 184v8h8v-8h-8z
M192 192v8h8v-8h-8zM176 232v8h8v-8h-8zM72 240v8h8v-8h-8zM184 240v8h8v-8h-8zM80 248v8h8v-8h-8zM224 176v24h-24v48h-8v8h-104v24h-24v-40h8v-8h104v-48h8v-8h40zM224 208v72h-128v-16h112v-56h16zM256 208v72h-24v-72h24zM288 288v8h8v-8h-8zM72 296v8h8v-8h-8zM240 296
v8h8v-8h-8zM296 296v8h8v-8h-8zM224 288v24h-128v-24h128zM256 288v16h-8v8h-16v-16h8v-8h16zM312 96v208h-8v8h-40v-24h24v-192h24zM232 400v8h8v-8h-8zM184 408v8h8v-8h-8zM240 408v8h8v-8h-8zM192 416v8h8v-8h-8zM88 288v16h-8v8h8v136h-24v-152h8v-8h16zM224 320v72h-56
v56h-72v-128h128zM176 456v8h8v-8h-8zM72 464v8h8v-8h-8zM184 464v8h8v-8h-8zM256 320v96h-8v8h-48v48h-8v8h-96v-24h80v-48h8v-8h48v-80h24zM224 0v64h8v8h8v-8h16v16h-8v8h8v8h24v184h-16v-80h-8v-8h-8v8h-16v-16h8v-8h-8v-8h-64v56h-112v232h8v8h8v-8h16v16h-8v8h8v8h120
v-56h56v-112h56v-288h-8v-8h-8v8h-16v-16h8v-8h-8v-8h-64z" />
    <glyph glyph-name="colon" unicode=":" horiz-adv-x="168" 
d="M72 16v8h8v-8h-8zM128 16v8h8v-8h-8zM80 24v8h8v-8h-8zM112 8v24h-24v24h-24v-40h8v-8h40zM112 40v16h-16v-16h16zM120 64v8h8v-8h-8zM72 72v8h8v-8h-8zM128 72v8h8v-8h-8zM144 40v40h-8v8h-40v-24h24v-24h24zM56 0v64h8v8h8v-8h16v16h-8v8h8v8h64v-64h-8v-8h-8v8h-16
v-16h8v-8h-8v-8h-64zM72 176v8h8v-8h-8zM128 176v8h8v-8h-8zM80 184v8h8v-8h-8zM112 168v24h-24v24h-24v-40h8v-8h40zM112 200v16h-16v-16h16zM120 224v8h8v-8h-8zM72 232v8h8v-8h-8zM128 232v8h8v-8h-8zM144 200v40h-8v8h-40v-24h24v-24h24zM56 160v64h8v8h8v-8h16v16h-8v8
h8v8h64v-64h-8v-8h-8v8h-16v-16h8v-8h-8v-8h-64z" />
    <glyph glyph-name="semicolon" unicode=";" horiz-adv-x="224" 
d="M72 -40v8h8v-8h-8zM184 -40v8h8v-8h-8zM80 -32v8h8v-8h-8zM64 8v8h8v-8h-8zM72 16v8h8v-8h-8zM128 16v8h8v-8h-8zM184 16v8h8v-8h-8zM136 24v8h8v-8h-8zM200 -16v40h-8v8h-16v-16h8v-8h-8v-24h24zM168 8v24h-24v24h-24v-40h8v-8h40zM168 40v16h-16v-16h16zM176 64v8h8v-8
h-8zM128 72v8h8v-8h-8zM184 72v8h8v-8h-8zM200 40v40h-8v8h-40v-24h24v-24h24zM56 -56v64h8v-48h8v-8h96v24h-80v48h-8v8h8v8h8v-56h72v16h-56v64h8v8h8v-8h16v16h-8v8h8v8h64v-120h-8v-8h-8v8h-16v-16h8v-8h-8v-8h-120zM128 176v8h8v-8h-8zM184 176v8h8v-8h-8zM136 184v8h8
v-8h-8zM168 168v24h-24v24h-24v-40h8v-8h40zM168 200v16h-16v-16h16zM176 224v8h8v-8h-8zM128 232v8h8v-8h-8zM184 232v8h8v-8h-8zM200 200v40h-8v8h-40v-24h24v-24h24zM112 160v64h8v8h8v-8h16v16h-8v8h8v8h64v-64h-8v-8h-8v8h-16v-16h8v-8h-8v-8h-64z" />
    <glyph glyph-name="question" unicode="?" horiz-adv-x="336" 
d="M184 16v8h8v-8h-8zM240 16v8h8v-8h-8zM192 24v8h8v-8h-8zM224 8v24h-24v8h24v16h-48v-40h8v-8h40zM232 64v8h8v-8h-8zM184 72v8h8v-8h-8zM240 72v8h8v-8h-8zM192 80v8h8v-8h-8zM256 40v40h-8v8h-48v136h-24v-152h8v-8h48v-24h24zM184 240v8h8v-8h-8zM240 240v8h8v-8h-8z
M224 232v24h-16v-24h16zM256 264v16h-24v-16h24zM240 296v8h8v-8h-8zM296 296v8h8v-8h-8zM280 288v24h-16v-24h16zM72 352v8h8v-8h-8zM128 352v8h8v-8h-8zM80 360v8h8v-8h-8zM112 344v24h-24v24h-24v-40h8v-8h40zM112 376v16h-16v-16h16zM72 408v8h8v-8h-8zM128 408v8h8v-8
h-8zM112 400v24h-16v-24h16zM144 376v40h-8v8h-16v-16h8v-8h-8v-24h24zM144 432v16h-24v-16h24zM288 456v8h8v-8h-8zM128 464v8h8v-8h-8zM296 464v8h8v-8h-8zM312 320v152h-8v8h-152v-24h136v-136h24zM168 0v232h8v8h8v-8h16v16h-8v8h8v8h24v24h8v8h8v-8h16v16h-8v8h8v8h24
v128h-128v-80h-8v-8h-8v8h-16v-16h8v-8h-8v-8h-64v64h8v8h8v-8h16v16h-8v8h8v8h24v24h8v8h8v-8h16v16h-8v8h8v8h176v-176h-8v-8h-8v8h-16v-16h8v-8h-8v-8h-24v-24h-8v-8h-8v8h-16v-16h8v-8h-8v-8h-24v-128h56v-64h-8v-8h-8v8h-16v-16h8v-8h-8v-8h-64z" />
    <glyph glyph-name="at" unicode="@" horiz-adv-x="336" 
d="M288 8v8h8v-8h-8zM72 16v8h8v-8h-8zM296 16v8h8v-8h-8zM80 24v8h8v-8h-8zM128 72v8h8v-8h-8zM184 72v8h8v-8h-8zM240 72v8h8v-8h-8zM296 72v8h8v-8h-8zM136 80v8h8v-8h-8zM248 80v8h8v-8h-8zM200 96v16h-24v-16h24zM184 128v8h8v-8h-8zM240 128v8h8v-8h-8zM224 120v24
h-16v-24h16zM280 64v24h-24v48h-8v8h-16v-16h8v-8h-8v-48h8v-8h40zM232 176v8h8v-8h-8zM184 184v8h8v-8h-8zM240 184v8h8v-8h-8zM192 192v8h8v-8h-8zM168 64v24h-24v136h-24v-152h8v-8h40zM168 96v24h8v8h8v-8h16v16h-8v8h8v8h24v16h-56v56h-16v-128h16zM176 232v8h8v-8h-8z
M128 240v8h8v-8h-8zM184 240v8h8v-8h-8zM256 152v40h-8v8h-48v48h-8v8h-40v-24h24v-48h8v-8h48v-24h24zM288 288v8h8v-8h-8zM72 296v8h8v-8h-8zM296 296v8h8v-8h-8zM312 96v208h-8v8h-208v-24h192v-192h24zM56 0v288h8v8h8v-8h16v16h-8v8h8v8h232v-232h-8v-8h-8v8h-16v-16h8
v-8h-8v-8h-64v56h-16v-24h-8v-8h-8v8h-16v-16h8v-8h-8v-8h-64v176h8v8h8v-8h16v16h-8v8h8v8h64v-56h56v-112h16v184h-184v-240h224v-8h-8v-8h-8v8h-216v248h-24v-264h8v-8h216v-8h-232z" />
    <glyph glyph-name="A" unicode="A" horiz-adv-x="504" 
d="M72 -96v8h8v-8h-8zM128 -96v8h8v-8h-8zM80 -88v8h8v-8h-8zM112 -104v24h-24v80h-24v-96h8v-8h40zM112 -72v72h-16v-72h16zM72 16v8h8v-8h-8zM128 16v8h8v-8h-8zM408 16v8h8v-8h-8zM464 16v8h8v-8h-8zM112 8v24h-16v-24h16zM144 -72v96h-8v8h-16v-16h8v-8h-8v-80h24z
M416 24v8h8v-8h-8zM480 40v16h-24v-16h24zM512 64v8h8v-8h-8zM464 72v8h8v-8h-8zM520 72v8h8v-8h-8zM296 184v8h8v-8h-8zM352 184v8h8v-8h-8zM304 192v8h8v-8h-8zM144 40v184h-24v-184h24zM288 232v8h8v-8h-8zM128 240v8h8v-8h-8zM184 240v8h8v-8h-8zM296 240v8h8v-8h-8z
M168 232v24h-16v-24h16zM336 176v24h-24v48h-8v8h-104v-8h-8v8h-16v-16h8v-8h104v-48h8v-8h40zM200 264v16h-24v-16h24zM336 208v72h-128v-16h112v-56h16zM368 208v72h-24v-72h24zM400 288v8h8v-8h-8zM184 296v8h8v-8h-8zM352 296v8h8v-8h-8zM408 296v8h8v-8h-8zM336 288v24
h-128v-24h128zM368 288v16h-8v8h-16v-16h8v-8h16zM448 8v24h-24v272h-8v8h-40v-24h24v-272h8v-8h40zM344 400v8h8v-8h-8zM296 408v8h8v-8h-8zM352 408v8h8v-8h-8zM304 416v8h8v-8h-8zM200 288v16h-8v8h8v136h-24v-152h8v-8h16zM336 320v72h-56v56h-72v-128h128zM288 456v8h8
v-8h-8zM184 464v8h8v-8h-8zM296 464v8h8v-8h-8zM368 320v96h-8v8h-48v48h-8v8h-96v-24h80v-48h8v-8h48v-80h24zM56 -112v120h8v8h8v-8h16v16h-8v8h8v8h24v192h8v8h8v-8h16v16h-8v8h8v8h24v192h8v8h8v-8h16v16h-8v8h8v8h120v-56h56v-112h56v-280h16v24h8v8h8v-8h16v16h-8v8h8
v8h64v-8h-8v-8h-8v8h-40v-24h24v-8h-24v-24h-8v-8h-8v8h-16v-16h8v-8h-8v-8h-64v280h-16v-80h-8v-8h-8v8h-16v-16h8v-8h-8v-8h-64v56h-128v-304h-8v-8h-8v8h-16v-16h8v-8h-8v-8h-64z" />
    <glyph glyph-name="B" unicode="B" horiz-adv-x="504" 
d="M72 -96v8h8v-8h-8zM184 -96v8h8v-8h-8zM80 -88v8h8v-8h-8zM168 -104v24h-80v24h-24v-40h8v-8h96zM72 -40v8h8v-8h-8zM128 -40v8h8v-8h-8zM112 -48v24h-16v-24h16zM200 -72v72h-24v-72h24zM184 16v8h8v-8h-8zM408 16v8h8v-8h-8zM464 16v8h8v-8h-8zM392 8v24h-184v-24h184z
M448 8v24h-24v-8h-8v8h-16v-16h8v-8h40zM88 -48v16h-8v8h8v80h-24v-96h8v-8h16zM112 -16v72h-16v-72h16zM480 40v16h-24v-16h24zM120 64v8h8v-8h-8zM512 64v8h8v-8h-8zM72 72v8h8v-8h-8zM128 72v8h8v-8h-8zM464 72v8h8v-8h-8zM520 72v8h8v-8h-8zM144 -16v96h-8v8h-40v-24h24
v-80h24zM200 8v16h-8v8h8v136h-24v-152h8v-8h16zM128 184v8h8v-8h-8zM240 184v8h8v-8h-8zM136 192v8h8v-8h-8zM200 176v24h-24v-24h24zM224 176v24h-16v-24h16zM256 208v16h-24v-16h24zM392 40v184h-128v-24h-8v-8h-8v8h-16v-16h8v-8h-8v-8h-24v-128h184zM400 232v8h8v-8h-8
zM240 240v8h8v-8h-8zM296 240v8h8v-8h-8zM408 240v8h8v-8h-8zM280 232v24h-16v-24h16zM424 40v208h-8v8h-104v-8h-8v8h-16v-16h8v-8h104v-192h24zM312 264v16h-24v-16h24zM296 296v8h8v-8h-8zM352 296v8h8v-8h-8zM336 288v24h-16v-24h16zM344 400v8h8v-8h-8zM72 408v8h8v-8
h-8zM128 408v8h8v-8h-8zM240 408v8h8v-8h-8zM352 408v8h8v-8h-8zM80 416v8h8v-8h-8zM248 416v8h8v-8h-8zM112 400v24h-24v24h-24v-40h8v-8h40zM112 432v16h-16v-16h16zM144 432v16h-24v-16h24zM200 208v240h-24v-240h24zM224 208v24h8v8h8v-8h16v16h-8v8h8v8h24v24h8v8h8v-8
h16v16h-8v8h8v8h24v72h-112v56h-16v-240h16zM232 456v8h8v-8h-8zM72 464v8h8v-8h-8zM128 464v8h8v-8h-8zM184 464v8h8v-8h-8zM240 464v8h8v-8h-8zM144 456v16h-8v8h-40v-24h24v8h8v-8h16zM200 456v16h-8v8h-40v-24h24v8h8v-8h16zM368 320v96h-8v8h-104v48h-8v8h-40v-24h24
v-48h8v-8h104v-80h24zM56 -112v176h8v8h8v-8h16v16h-8v8h8v8h64v-120h-8v-8h-8v8h-16v-16h8v-8h-8v-8h-24v-16h72v240h-56v8h8v8h8v-8h40v24h-24v8h24v240h-16v-24h-8v-8h-8v8h-16v-16h8v-8h-8v-8h-64v64h8v8h8v-8h16v16h-8v8h8v8h176v-56h112v-120h-8v-8h-8v8h-16v-16h8v-8
h-8v-8h-24v-16h112v-224h16v24h8v8h8v-8h16v16h-8v8h8v8h64v-8h-8v-8h-8v8h-40v-24h24v-8h-24v-24h-8v-8h-8v8h-16v-16h8v-8h-8v-8h-248v-80h-8v-8h-8v8h-16v-16h8v-8h-8v-8h-120z" />
    <glyph glyph-name="C" unicode="C" horiz-adv-x="448" 
d="M128 16v8h8v-8h-8zM408 16v8h8v-8h-8zM136 24v8h8v-8h-8zM424 40v16h-24v-16h24zM120 64v8h8v-8h-8zM456 64v8h8v-8h-8zM72 72v8h8v-8h-8zM128 72v8h8v-8h-8zM408 72v8h8v-8h-8zM464 72v8h8v-8h-8zM80 80v8h8v-8h-8zM240 240v8h8v-8h-8zM352 240v8h8v-8h-8zM248 248v8h8
v-8h-8zM392 8v24h-248v48h-8v8h-48v248h-24v-264h8v-8h48v-48h8v-8h264zM336 232v24h-80v80h-24v-96h8v-8h96zM72 352v8h8v-8h-8zM128 352v8h8v-8h-8zM240 352v8h8v-8h-8zM296 352v8h8v-8h-8zM112 344v24h-16v-24h16zM280 344v24h-16v-24h16zM144 376v16h-24v-16h24z
M128 408v8h8v-8h-8zM240 408v8h8v-8h-8zM224 400v24h-72v-24h72zM256 432v16h-24v-16h24zM312 376v72h-24v-72h24zM336 264v184h-16v-80h-8v-8h-8v8h-16v-16h8v-8h-8v-8h-24v-72h72zM344 456v8h8v-8h-8zM240 464v8h8v-8h-8zM296 464v8h8v-8h-8zM352 464v8h8v-8h-8zM312 456
v16h-8v8h-40v-24h24v8h8v-8h16zM368 264v208h-8v8h-40v-24h24v-192h24zM112 0v56h-56v288h8v8h8v-8h16v16h-8v8h8v8h24v24h8v8h8v-8h16v16h-8v8h8v8h80v24h8v8h8v-8h16v16h-8v8h8v8h120v-232h-8v-8h-8v8h-16v-16h8v-8h-8v-8h-120v120h8v8h8v-8h16v16h-8v8h8v8h24v72h-16v-24
h-8v-8h-8v8h-16v-16h8v-8h-8v-8h-80v-24h-8v-8h-8v8h-16v-16h8v-8h-8v-8h-24v-240h56v-56h240v24h8v8h8v-8h16v16h-8v8h8v8h64v-8h-8v-8h-8v8h-40v-24h24v-8h-24v-24h-8v-8h-8v8h-16v-16h8v-8h-8v-8h-288z" />
    <glyph glyph-name="D" unicode="D" horiz-adv-x="504" 
d="M72 16v8h8v-8h-8zM184 16v8h8v-8h-8zM352 16v8h8v-8h-8zM464 16v8h8v-8h-8zM80 24v8h8v-8h-8zM336 8v24h-136v-8h-8v8h-16v-16h8v-8h152zM448 8v24h-80v-8h-8v8h-16v-16h8v-8h96zM168 8v24h-80v24h-24v-40h8v-8h96zM368 40v16h-24v-16h24zM480 40v16h-24v-16h24zM512 64
v8h8v-8h-8zM72 72v8h8v-8h-8zM128 72v8h8v-8h-8zM352 72v8h8v-8h-8zM408 72v8h8v-8h-8zM464 72v8h8v-8h-8zM520 72v8h8v-8h-8zM112 64v24h-16v-24h16zM392 64v24h-16v-24h16zM88 64v16h-8v8h8v80h-24v-96h8v-8h16zM112 96v72h-16v-72h16zM120 176v8h8v-8h-8zM72 184v8h8v-8
h-8zM128 184v8h8v-8h-8zM144 96v96h-8v8h-40v-24h24v-80h24zM400 400v8h8v-8h-8zM72 408v8h8v-8h-8zM128 408v8h8v-8h-8zM240 408v8h8v-8h-8zM408 408v8h8v-8h-8zM80 416v8h8v-8h-8zM248 416v8h8v-8h-8zM112 400v24h-24v24h-24v-40h8v-8h40zM112 432v16h-16v-16h16zM144 432
v16h-24v-16h24zM200 40v408h-24v-408h24zM336 40v24h8v8h8v-8h16v16h-8v8h8v8h24v296h-168v56h-16v-408h128zM232 456v8h8v-8h-8zM72 464v8h8v-8h-8zM128 464v8h8v-8h-8zM184 464v8h8v-8h-8zM240 464v8h8v-8h-8zM144 456v16h-8v8h-40v-24h24v8h8v-8h16zM200 456v16h-8v8h-40
v-24h24v8h8v-8h16zM424 96v320h-8v8h-160v48h-8v8h-40v-24h24v-48h8v-8h160v-304h24zM56 0v176h8v8h8v-8h16v16h-8v8h8v8h64v-120h-8v-8h-8v8h-16v-16h8v-8h-8v-8h-24v-16h72v408h-16v-24h-8v-8h-8v8h-16v-16h8v-8h-8v-8h-64v64h8v8h8v-8h16v16h-8v8h8v8h176v-56h168v-344
h-8v-8h-8v8h-16v-16h8v-8h-8v-8h-24v-16h72v24h8v8h8v-8h16v16h-8v8h8v8h64v-8h-8v-8h-8v8h-40v-24h24v-8h-24v-24h-8v-8h-8v8h-16v-16h8v-8h-8v-8h-400z" />
    <glyph glyph-name="E" unicode="E" horiz-adv-x="504" 
d="M72 16v8h8v-8h-8zM464 16v8h8v-8h-8zM80 24v8h8v-8h-8zM448 8v24h-360v24h-24v-40h8v-8h376zM480 40v16h-24v-16h24zM520 64v8h8v-8h-8zM72 72v8h8v-8h-8zM128 72v8h8v-8h-8zM184 72v8h8v-8h-8zM464 72v8h8v-8h-8zM528 72v8h8v-8h-8zM112 64v24h-16v-24h16zM168 64v24
h-24v-8h-8v8h-16v-16h8v-8h40zM88 64v16h-8v8h8v80h-24v-96h8v-8h16zM112 96v72h-16v-72h16zM200 96v72h-24v-72h24zM120 176v8h8v-8h-8zM72 184v8h8v-8h-8zM128 184v8h8v-8h-8zM184 184v8h8v-8h-8zM296 184v8h8v-8h-8zM352 184v8h8v-8h-8zM408 184v8h8v-8h-8zM144 96v96h-8
v8h-40v-24h24v-80h24zM280 176v24h-72v-24h72zM360 192v8h8v-8h-8zM312 208v16h-24v-16h24zM392 176v24h-24v24h-24v-40h8v-8h40zM392 208v16h-16v-16h16zM400 232v8h8v-8h-8zM296 240v8h8v-8h-8zM352 240v8h8v-8h-8zM408 240v8h8v-8h-8zM368 232v16h-8v8h-40v-24h24v8h8v-8
h16zM424 208v40h-8v8h-40v-24h24v-24h24zM352 352v8h8v-8h-8zM408 352v8h8v-8h-8zM360 360v8h8v-8h-8zM344 400v8h8v-8h-8zM72 408v8h8v-8h-8zM128 408v8h8v-8h-8zM296 408v8h8v-8h-8zM352 408v8h8v-8h-8zM80 416v8h8v-8h-8zM304 416v8h8v-8h-8zM112 400v24h-24v24h-24v-40
h8v-8h40zM112 432v16h-16v-16h16zM144 432v16h-24v-16h24zM200 176v16h-8v8h8v248h-24v-264h8v-8h16zM392 344v24h-24v48h-8v8h-48v24h-24v-40h8v-8h48v-48h8v-8h40zM392 376v72h-72v-16h56v-56h16zM400 456v8h8v-8h-8zM72 464v8h8v-8h-8zM128 464v8h8v-8h-8zM184 464v8h8
v-8h-8zM296 464v8h8v-8h-8zM408 464v8h8v-8h-8zM144 456v16h-8v8h-40v-24h24v8h8v-8h16zM200 456v16h-8v8h-40v-24h24v8h8v-8h16zM312 456v16h-8v8h-96v-24h80v8h8v-8h16zM424 376v96h-8v8h-96v-24h80v-80h24zM56 0v176h8v8h8v-8h16v16h-8v8h8v8h64v-112h16v352h-16v-24h-8
v-8h-8v8h-16v-16h8v-8h-8v-8h-64v64h8v8h8v-8h16v16h-8v8h8v8h344v-120h-8v-8h-8v8h-16v-16h8v-8h-8v-8h-64v56h-56v56h-72v-240h72v24h8v8h8v-8h16v16h-8v8h8v8h120v-64h-8v-8h-8v8h-16v-16h8v-8h-8v-8h-64v56h-16v-24h-8v-8h-8v8h-16v-16h8v-8h-8v-8h-80v-80h-8v-8h-8v8
h-16v-16h8v-8h-8v-8h-80v-16h352v24h8v8h8v-8h16v16h-8v8h8v8h72v-8h-8v-8h-8v8h-48v-24h32v-8h-32v-24h-8v-8h-8v8h-16v-16h8v-8h-8v-8h-400z" />
    <glyph glyph-name="F" unicode="F" horiz-adv-x="448" 
d="M72 -208v8h8v-8h-8zM184 -208v8h8v-8h-8zM80 -200v8h8v-8h-8zM168 -216v24h-80v80h-24v-96h8v-8h96zM72 -96v8h8v-8h-8zM128 -96v8h8v-8h-8zM112 -104v24h-16v-24h16zM144 -72v72h-24v-72h24zM168 -184v184h-16v-80h-8v-8h-8v8h-16v-16h8v-8h-8v-8h-24v-72h72zM128 16v8
h8v-8h-8zM184 16v8h8v-8h-8zM168 8v24h-16v-24h16zM200 -184v208h-8v8h-16v-16h8v-8h-8v-192h24zM456 64v8h8v-8h-8zM408 72v8h8v-8h-8zM464 72v8h8v-8h-8zM416 80v8h8v-8h-8zM200 40v72h-24v-72h24zM400 120v8h8v-8h-8zM128 128v8h8v-8h-8zM184 128v8h8v-8h-8zM240 128v8h8
v-8h-8zM296 128v8h8v-8h-8zM408 128v8h8v-8h-8zM136 136v8h8v-8h-8zM200 120v16h-8v8h-16v-16h8v-8h16zM224 120v24h-16v-24h16zM304 136v8h8v-8h-8zM256 152v16h-24v-16h24zM288 176v8h8v-8h-8zM240 184v8h8v-8h-8zM296 184v8h8v-8h-8zM200 152v128h-24v-128h24zM184 296v8
h8v-8h-8zM240 296v8h8v-8h-8zM224 288v24h-16v-24h16zM256 320v16h-24v-16h24zM240 352v8h8v-8h-8zM408 352v8h8v-8h-8zM392 344v24h-128v-24h128zM72 408v8h8v-8h-8zM128 408v8h8v-8h-8zM80 416v8h8v-8h-8zM112 400v24h-24v24h-24v-40h8v-8h40zM112 432v16h-16v-16h16z
M144 432v16h-24v-16h24zM200 288v16h-8v8h8v136h-24v-152h8v-8h16zM224 320v24h8v8h8v-8h16v16h-8v8h8v8h136v72h-184v-128h16zM400 456v8h8v-8h-8zM72 464v8h8v-8h-8zM128 464v8h8v-8h-8zM184 464v8h8v-8h-8zM408 464v8h8v-8h-8zM144 456v16h-8v8h-40v-24h24v8h8v-8h16z
M200 456v16h-8v8h-40v-24h24v8h8v-8h16zM424 376v96h-8v8h-208v-24h192v-80h24zM56 -224v120h8v8h8v-8h16v16h-8v8h8v8h24v80h8v8h8v-8h16v16h-8v8h8v8h24v72h-56v8h8v8h8v-8h40v24h-24v8h24v296h-16v-24h-8v-8h-8v8h-16v-16h8v-8h-8v-8h-64v64h8v8h8v-8h16v16h-8v8h8v8h344
v-120h-8v-8h-8v8h-16v-16h8v-8h-8v-8h-136v-24h-8v-8h-8v8h-16v-16h8v-8h-8v-8h-24v-128h16v24h8v8h8v-8h16v16h-8v8h8v8h64v-56h112v-56h56v-8h-8v-8h-8v8h-48v48h-8v8h-104v48h-8v8h-40v-24h24v-48h8v-8h104v-48h8v-8h48v-8h-64v56h-112v56h-16v-24h-8v-8h-8v8h-16v-16h8
v-8h-8v-8h-24v-304h-8v-8h-8v8h-16v-16h8v-8h-8v-8h-120z" />
    <glyph glyph-name="G" unicode="G" horiz-adv-x="448" 
d="M184 -152v8h8v-8h-8zM352 -152v8h8v-8h-8zM192 -144v8h8v-8h-8zM336 -160v24h-136v80h-24v-96h8v-8h152zM184 -40v8h8v-8h-8zM296 -40v8h8v-8h-8zM280 -48v24h-72v-24h72zM312 -16v16h-24v-16h24zM336 -128v128h-16v-24h-8v-8h-8v8h-16v-16h8v-8h-8v-8h-80v-72h128z
M368 -128v128h-24v-128h24zM128 16v8h8v-8h-8zM296 16v8h8v-8h-8zM352 16v8h8v-8h-8zM408 16v8h8v-8h-8zM136 24v8h8v-8h-8zM336 8v24h-16v-24h16zM368 8v16h-8v8h-16v-16h8v-8h16zM392 8v24h-16v-24h16zM424 40v16h-24v-16h24zM120 64v8h8v-8h-8zM456 64v8h8v-8h-8zM72 72
v8h8v-8h-8zM128 72v8h8v-8h-8zM184 72v8h8v-8h-8zM240 72v8h8v-8h-8zM408 72v8h8v-8h-8zM464 72v8h8v-8h-8zM80 80v8h8v-8h-8zM192 80v8h8v-8h-8zM256 96v16h-24v-16h24zM240 128v8h8v-8h-8zM296 128v8h8v-8h-8zM280 120v24h-16v-24h16zM224 64v24h-24v80h-24v-96h8v-8h40z
M224 96v24h8v8h8v-8h16v16h-8v8h8v8h24v16h-72v-72h16zM312 152v16h-24v-16h24zM344 176v8h8v-8h-8zM184 184v8h8v-8h-8zM296 184v8h8v-8h-8zM352 184v8h8v-8h-8zM312 176v16h-8v8h-96v-24h80v8h8v-8h16zM368 40v152h-8v8h-40v-24h24v-136h24zM240 240v8h8v-8h-8zM352 240v8
h8v-8h-8zM248 248v8h8v-8h-8zM312 8v16h-8v8h-160v48h-8v8h-48v248h-24v-264h8v-8h48v-48h8v-8h160v8h8v-8h16zM336 232v24h-80v80h-24v-96h8v-8h96zM72 352v8h8v-8h-8zM128 352v8h8v-8h-8zM240 352v8h8v-8h-8zM296 352v8h8v-8h-8zM112 344v24h-16v-24h16zM280 344v24h-16
v-24h16zM144 376v16h-24v-16h24zM128 408v8h8v-8h-8zM240 408v8h8v-8h-8zM224 400v24h-72v-24h72zM256 432v16h-24v-16h24zM312 376v72h-24v-72h24zM336 264v184h-16v-80h-8v-8h-8v8h-16v-16h8v-8h-8v-8h-24v-72h72zM344 456v8h8v-8h-8zM240 464v8h8v-8h-8zM296 464v8h8v-8
h-8zM352 464v8h8v-8h-8zM312 456v16h-8v8h-40v-24h24v8h8v-8h16zM368 264v208h-8v8h-40v-24h24v-192h24zM168 -168v120h8v8h8v-8h16v16h-8v8h8v8h80v16h-168v56h-56v288h8v8h8v-8h16v16h-8v8h8v8h24v24h8v8h8v-8h16v16h-8v8h8v8h80v24h8v8h8v-8h16v16h-8v8h8v8h120v-232h-8
v-8h-8v8h-16v-16h8v-8h-8v-8h-120v120h8v8h8v-8h16v16h-8v8h8v8h24v72h-16v-24h-8v-8h-8v8h-16v-16h8v-8h-8v-8h-80v-24h-8v-8h-8v8h-16v-16h8v-8h-8v-8h-24v-240h56v-56h184v128h-16v-24h-8v-8h-8v8h-16v-16h8v-8h-8v-8h-24v-24h-8v-8h-8v8h-16v-16h8v-8h-8v-8h-64v120h8v8
h8v-8h16v16h-8v8h8v8h176v-168h16v24h8v8h8v-8h16v16h-8v8h8v8h64v-8h-8v-8h-8v8h-40v-24h24v-8h-24v-24h-8v-8h-8v8h-16v-16h8v-8h-8v-8h-24v-136h-8v-8h-8v8h-16v-16h8v-8h-8v-8h-176z" />
    <glyph glyph-name="H" unicode="H" horiz-adv-x="504" 
d="M72 -96v8h8v-8h-8zM184 -96v8h8v-8h-8zM80 -88v8h8v-8h-8zM168 -104v24h-80v24h-24v-40h8v-8h96zM72 -40v8h8v-8h-8zM128 -40v8h8v-8h-8zM112 -48v24h-16v-24h16zM408 16v8h8v-8h-8zM464 16v8h8v-8h-8zM416 24v8h8v-8h-8zM88 -48v16h-8v8h8v80h-24v-96h8v-8h16zM112 -16
v72h-16v-72h16zM480 40v16h-24v-16h24zM120 64v8h8v-8h-8zM512 64v8h8v-8h-8zM72 72v8h8v-8h-8zM128 72v8h8v-8h-8zM464 72v8h8v-8h-8zM520 72v8h8v-8h-8zM144 -16v96h-8v8h-40v-24h24v-80h24zM200 -72v240h-24v-240h24zM128 184v8h8v-8h-8zM184 184v8h8v-8h-8zM240 184v8h8
v-8h-8zM464 184v8h8v-8h-8zM136 192v8h8v-8h-8zM200 176v16h-8v8h-16v-16h8v-8h16zM224 176v24h-16v-24h16zM472 192v8h8v-8h-8zM256 208v16h-24v-16h24zM448 8v24h-24v192h-24v-208h8v-8h40zM456 232v8h8v-8h-8zM240 240v8h8v-8h-8zM408 240v8h8v-8h-8zM464 240v8h8v-8h-8z
M392 232v24h-128v-24h128zM424 232v16h-8v8h-16v-16h8v-8h16zM352 296v8h8v-8h-8zM408 296v8h8v-8h-8zM360 304v8h8v-8h-8zM424 264v40h-8v8h-16v-16h8v-8h-8v-24h24zM344 344v8h8v-8h-8zM296 352v8h8v-8h-8zM352 352v8h8v-8h-8zM304 360v8h8v-8h-8zM72 408v8h8v-8h-8z
M128 408v8h8v-8h-8zM80 416v8h8v-8h-8zM112 400v24h-24v24h-24v-40h8v-8h40zM112 432v16h-16v-16h16zM144 432v16h-24v-16h24zM392 288v24h-24v48h-8v8h-48v80h-24v-96h8v-8h48v-48h8v-8h40zM392 320v128h-72v-72h56v-56h16zM176 456v8h8v-8h-8zM400 456v8h8v-8h-8zM72 464
v8h8v-8h-8zM128 464v8h8v-8h-8zM184 464v8h8v-8h-8zM296 464v8h8v-8h-8zM408 464v8h8v-8h-8zM144 456v16h-8v8h-40v-24h24v8h8v-8h16zM200 208v264h-8v8h-40v-24h24v-248h24zM424 320v152h-8v8h-96v-24h80v-136h24zM56 -112v176h8v8h8v-8h16v16h-8v8h8v8h64v-120h-8v-8h-8v8
h-16v-16h8v-8h-8v-8h-24v-16h72v240h-56v8h8v8h8v-8h40v24h-24v8h24v240h-16v-24h-8v-8h-8v8h-16v-16h8v-8h-8v-8h-64v64h8v8h8v-8h16v16h-8v8h8v8h120v-280h16v24h8v8h8v-8h16v16h-8v8h8v8h136v16h-56v56h-56v120h8v8h8v-8h16v16h-8v8h8v8h120v-224h56v-64h-8v48h-8v8h-40
v-24h24v-48h8v-8h-8v-8h-8v56h-16v-184h16v24h8v8h8v-8h16v16h-8v8h8v8h64v-8h-8v-8h-8v8h-40v-24h24v-8h-24v-24h-8v-8h-8v8h-16v-16h8v-8h-8v-8h-64v224h-128v-24h-8v-8h-8v8h-16v-16h8v-8h-8v-8h-24v-248h-8v-8h-8v8h-16v-16h8v-8h-8v-8h-120z" />
    <glyph glyph-name="I" unicode="I" horiz-adv-x="392" 
d="M72 16v8h8v-8h-8zM184 16v8h8v-8h-8zM352 16v8h8v-8h-8zM80 24v8h8v-8h-8zM336 8v24h-136v-8h-8v8h-16v-16h8v-8h152zM368 40v16h-24v-16h24zM64 64v8h8v-8h-8zM400 64v8h8v-8h-8zM72 72v8h8v-8h-8zM352 72v8h8v-8h-8zM408 72v8h8v-8h-8zM200 40v352h-24v-352h24z
M184 408v8h8v-8h-8zM296 408v8h8v-8h-8zM280 400v24h-72v-24h72zM200 400v16h-8v8h8v24h-24v-40h8v-8h16zM280 432v16h-72v-16h72zM288 456v8h8v-8h-8zM72 464v8h8v-8h-8zM184 464v8h8v-8h-8zM296 464v8h8v-8h-8zM80 472v8h8v-8h-8zM312 432v40h-8v8h-96v-24h80v-24h24z
M56 0v64h8v-48h8v-8h96v24h-80v48h-8v8h8v8h8v-56h72v408h-112v8h8v8h8v-8h104v8h8v-8h16v16h-8v8h-104v8h232v-64h-8v-8h-8v8h-16v-16h8v-8h-8v-8h-80v-352h128v24h8v8h8v-8h16v16h-8v8h8v8h64v-8h-8v-8h-8v8h-40v-24h24v-8h-24v-24h-8v-8h-8v8h-16v-16h8v-8h-8v-8h-288z
" />
    <glyph glyph-name="J" unicode="J" horiz-adv-x="504" 
d="M72 -152v8h8v-8h-8zM352 -152v8h8v-8h-8zM80 -144v8h8v-8h-8zM368 -128v16h-24v-16h24zM352 -96v8h8v-8h-8zM408 -96v8h8v-8h-8zM392 -104v24h-16v-24h16zM336 -160v24h-248v80h-24v-96h8v-8h264zM72 -40v8h8v-8h-8zM184 -40v8h8v-8h-8zM168 -48v24h-72v-24h72zM200 -16
v16h-24v-16h24zM336 -128v24h8v8h8v-8h16v16h-8v8h8v8h24v72h-184v-24h-8v-8h-8v8h-16v-16h8v-8h-8v-8h-80v-72h240zM424 -72v72h-24v-72h24zM184 16v8h8v-8h-8zM408 16v8h8v-8h-8zM464 16v8h8v-8h-8zM392 8v24h-184v-24h184zM424 8v16h-8v8h-16v-16h8v-8h16zM448 8v24h-16
v-24h16zM480 40v16h-24v-16h24zM512 64v8h8v-8h-8zM464 72v8h8v-8h-8zM520 72v8h8v-8h-8zM352 240v8h8v-8h-8zM408 240v8h8v-8h-8zM360 248v8h8v-8h-8zM424 40v208h-8v8h-16v-16h8v-8h-8v-192h24zM184 296v8h8v-8h-8zM296 296v8h8v-8h-8zM192 304v8h8v-8h-8zM312 320v16h-24
v-16h24zM344 344v8h8v-8h-8zM296 352v8h8v-8h-8zM352 352v8h8v-8h-8zM392 232v24h-24v104h-8v8h-40v-24h24v-104h8v-8h40zM280 288v24h-80v136h-24v-152h8v-8h96zM392 264v184h-184v-128h72v24h8v8h8v-8h16v16h-8v8h8v8h64v-112h16zM400 456v8h8v-8h-8zM184 464v8h8v-8h-8z
M408 464v8h8v-8h-8zM424 264v208h-8v8h-208v-24h192v-192h24zM56 -168v120h8v8h8v-8h16v16h-8v8h8v8h80v24h8v8h8v-8h16v16h-8v8h8v8h192v184h-56v112h-16v-24h-8v-8h-8v8h-16v-16h8v-8h-8v-8h-120v176h8v8h8v-8h16v16h-8v8h8v8h232v-448h16v24h8v8h8v-8h16v16h-8v8h8v8h64
v-8h-8v-8h-8v8h-40v-24h24v-8h-24v-24h-8v-8h-8v8h-16v-16h8v-8h-8v-8h-24v-80h-8v-8h-8v8h-16v-16h8v-8h-8v-8h-24v-24h-8v-8h-8v8h-16v-16h8v-8h-8v-8h-288z" />
    <glyph glyph-name="K" unicode="K" horiz-adv-x="504" 
d="M72 -96v8h8v-8h-8zM184 -96v8h8v-8h-8zM80 -88v8h8v-8h-8zM168 -104v24h-80v24h-24v-40h8v-8h96zM72 -40v8h8v-8h-8zM128 -40v8h8v-8h-8zM112 -48v24h-16v-24h16zM408 16v8h8v-8h-8zM464 16v8h8v-8h-8zM416 24v8h8v-8h-8zM88 -48v16h-8v8h8v80h-24v-96h8v-8h16zM112 -16
v72h-16v-72h16zM480 40v16h-24v-16h24zM120 64v8h8v-8h-8zM512 64v8h8v-8h-8zM72 72v8h8v-8h-8zM128 72v8h8v-8h-8zM464 72v8h8v-8h-8zM520 72v8h8v-8h-8zM144 -16v96h-8v8h-40v-24h24v-80h24zM400 120v8h8v-8h-8zM352 128v8h8v-8h-8zM408 128v8h8v-8h-8zM360 136v8h8v-8h-8
zM200 -72v240h-24v-240h24zM344 176v8h8v-8h-8zM128 184v8h8v-8h-8zM184 184v8h8v-8h-8zM240 184v8h8v-8h-8zM352 184v8h8v-8h-8zM136 192v8h8v-8h-8zM200 176v16h-8v8h-16v-16h8v-8h16zM224 176v24h-16v-24h16zM448 8v24h-24v104h-8v8h-48v48h-8v8h-104v-8h-8v8h-16v-16h8
v-8h104v-48h8v-8h48v-104h8v-8h40zM296 296v8h8v-8h-8zM408 296v8h8v-8h-8zM304 304v8h8v-8h-8zM392 288v24h-80v24h-24v-40h8v-8h96zM296 352v8h8v-8h-8zM352 352v8h8v-8h-8zM336 344v24h-16v-24h16zM256 208v184h-24v-184h24zM72 408v8h8v-8h-8zM128 408v8h8v-8h-8z
M240 408v8h8v-8h-8zM296 408v8h8v-8h-8zM80 416v8h8v-8h-8zM280 400v24h-16v-24h16zM112 400v24h-24v24h-24v-40h8v-8h40zM112 432v16h-16v-16h16zM144 432v16h-24v-16h24zM312 432v16h-24v-16h24zM368 376v72h-24v-72h24zM392 320v128h-16v-80h-8v-8h-8v8h-16v-16h8v-8h-8
v-8h-24v-16h72zM176 456v8h8v-8h-8zM400 456v8h8v-8h-8zM72 464v8h8v-8h-8zM128 464v8h8v-8h-8zM184 464v8h8v-8h-8zM296 464v8h8v-8h-8zM352 464v8h8v-8h-8zM408 464v8h8v-8h-8zM144 456v16h-8v8h-40v-24h24v8h8v-8h16zM200 208v264h-8v8h-40v-24h24v-248h24zM368 456v16
h-8v8h-40v-24h24v8h8v-8h16zM424 320v152h-8v8h-40v-24h24v-136h24zM56 -112v176h8v8h8v-8h16v16h-8v8h8v8h64v-120h-8v-8h-8v8h-16v-16h8v-8h-8v-8h-24v-16h72v240h-56v8h8v8h8v-8h40v24h-24v8h24v240h-16v-24h-8v-8h-8v8h-16v-16h8v-8h-8v-8h-64v64h8v8h8v-8h16v16h-8v8h8
v8h120v-280h16v192h8v8h8v-8h16v16h-8v8h8v8h24v24h8v8h8v-8h16v16h-8v8h8v8h120v-176h-8v-8h-8v8h-16v-16h8v-8h-8v-8h-120v64h8v8h8v-8h16v16h-8v8h8v8h24v72h-16v-24h-8v-8h-8v8h-16v-16h8v-8h-8v-8h-24v-184h112v-56h56v-112h16v24h8v8h8v-8h16v16h-8v8h8v8h64v-8h-8v-8
h-8v8h-40v-24h24v-8h-24v-24h-8v-8h-8v8h-16v-16h8v-8h-8v-8h-64v112h-56v56h-128v-248h-8v-8h-8v8h-16v-16h8v-8h-8v-8h-120z" />
    <glyph glyph-name="L" unicode="L" horiz-adv-x="504" 
d="M184 16v8h8v-8h-8zM464 16v8h8v-8h-8zM192 24v8h8v-8h-8zM448 8v24h-248v24h-24v-40h8v-8h264zM480 40v16h-24v-16h24zM512 64v8h8v-8h-8zM184 72v8h8v-8h-8zM296 72v8h8v-8h-8zM464 72v8h8v-8h-8zM520 72v8h8v-8h-8zM280 64v24h-72v-24h72zM312 96v72h-24v-72h24z
M296 184v8h8v-8h-8zM352 184v8h8v-8h-8zM336 176v24h-16v-24h16zM344 400v8h8v-8h-8zM72 408v8h8v-8h-8zM128 408v8h8v-8h-8zM240 408v8h8v-8h-8zM352 408v8h8v-8h-8zM80 416v8h8v-8h-8zM248 416v8h8v-8h-8zM112 400v24h-24v24h-24v-40h8v-8h40zM112 432v16h-16v-16h16z
M144 432v16h-24v-16h24zM200 64v16h-8v8h8v360h-24v-376h8v-8h16zM280 96v80h8v8h8v-8h16v16h-8v8h8v8h24v184h-112v56h-16v-352h72zM232 456v8h8v-8h-8zM72 464v8h8v-8h-8zM128 464v8h8v-8h-8zM184 464v8h8v-8h-8zM240 464v8h8v-8h-8zM144 456v16h-8v8h-40v-24h24v8h8v-8
h16zM200 456v16h-8v8h-40v-24h24v8h8v-8h16zM368 208v208h-8v8h-104v48h-8v8h-40v-24h24v-48h8v-8h104v-192h24zM168 0v448h-16v-24h-8v-8h-8v8h-16v-16h8v-8h-8v-8h-64v64h8v8h8v-8h16v16h-8v8h8v8h176v-56h112v-232h-8v-8h-8v8h-16v-16h8v-8h-8v-8h-24v-80h-8v-8h-8v8h-16
v-16h8v-8h-8v-8h-80v-16h240v24h8v8h8v-8h16v16h-8v8h8v8h64v-8h-8v-8h-8v8h-40v-24h24v-8h-24v-24h-8v-8h-8v8h-16v-16h8v-8h-8v-8h-288z" />
    <glyph glyph-name="M" unicode="M" horiz-adv-x="672" 
d="M72 -96v8h8v-8h-8zM184 -96v8h8v-8h-8zM576 -96v8h8v-8h-8zM632 -96v8h8v-8h-8zM80 -88v8h8v-8h-8zM584 -88v8h8v-8h-8zM168 -104v24h-80v24h-24v-40h8v-8h96zM72 -40v8h8v-8h-8zM128 -40v8h8v-8h-8zM112 -48v24h-16v-24h16zM352 16v8h8v-8h-8zM464 16v8h8v-8h-8zM360 24
v8h8v-8h-8zM88 -48v16h-8v8h8v80h-24v-96h8v-8h16zM112 -16v72h-16v-72h16zM448 8v24h-80v24h-24v-40h8v-8h96zM448 40v16h-72v-16h72zM648 -72v128h-24v-128h24zM120 64v8h8v-8h-8zM456 64v8h8v-8h-8zM680 64v8h8v-8h-8zM72 72v8h8v-8h-8zM128 72v8h8v-8h-8zM352 72v8h8v-8
h-8zM464 72v8h8v-8h-8zM632 72v8h8v-8h-8zM688 72v8h8v-8h-8zM144 -16v96h-8v8h-40v-24h24v-80h24zM480 40v40h-8v8h-96v-24h80v-24h24zM368 64v16h-8v8h8v80h-24v-96h8v-8h16zM352 184v8h8v-8h-8zM408 184v8h8v-8h-8zM392 176v24h-16v-24h16zM368 176v16h-8v8h8v192h-24
v-208h8v-8h16zM392 208v184h-16v-184h16zM424 208v184h-24v-184h24zM72 408v8h8v-8h-8zM128 408v8h8v-8h-8zM240 408v8h8v-8h-8zM352 408v8h8v-8h-8zM408 408v8h8v-8h-8zM464 408v8h8v-8h-8zM80 416v8h8v-8h-8zM248 416v8h8v-8h-8zM424 400v16h-8v8h-40v-24h24v8h8v-8h16z
M448 400v24h-16v-24h16zM112 400v24h-24v24h-24v-40h8v-8h40zM112 432v16h-16v-16h16zM144 432v16h-24v-16h24zM200 -72v520h-24v-520h24zM480 432v16h-24v-16h24zM232 456v8h8v-8h-8zM568 456v8h8v-8h-8zM72 464v8h8v-8h-8zM128 464v8h8v-8h-8zM184 464v8h8v-8h-8zM240 464
v8h8v-8h-8zM464 464v8h8v-8h-8zM576 464v8h8v-8h-8zM144 456v16h-8v8h-40v-24h24v8h8v-8h16zM200 456v16h-8v8h-40v-24h24v8h8v-8h16zM368 400v16h-8v8h-104v48h-8v8h-40v-24h24v-48h8v-8h104v8h8v-8h16zM616 -104v24h-24v552h-8v8h-96v-24h80v-552h8v-8h40zM56 -112v176h8
v8h8v-8h16v16h-8v8h8v8h64v-120h-8v-8h-8v8h-16v-16h8v-8h-8v-8h-24v-16h72v520h-16v-24h-8v-8h-8v8h-16v-16h8v-8h-8v-8h-64v64h8v8h8v-8h16v16h-8v8h8v8h176v-56h184v24h8v8h8v-8h16v16h-8v8h8v8h120v-560h16v136h8v8h8v-8h16v16h-8v8h8v8h64v-8h-8v-8h-8v8h-40v-24h24v-8
h-24v-136h-8v-8h-8v8h-16v-16h8v-8h-8v-8h-64v560h-72v-24h-8v-8h-8v8h-16v-16h8v-8h-8v-8h-24v-192h-8v-8h-8v8h-16v-16h8v-8h-8v-8h-24v-72h112v-64h-8v-8h-8v8h-16v-16h8v-8h-8v-8h-120v392h-112v56h-16v-528h-8v-8h-8v8h-16v-16h8v-8h-8v-8h-120z" />
    <glyph glyph-name="N" unicode="N" horiz-adv-x="608" 
d="M72 -96v8h8v-8h-8zM184 -96v8h8v-8h-8zM80 -88v8h8v-8h-8zM168 -104v24h-80v24h-24v-40h8v-8h96zM72 -40v8h8v-8h-8zM128 -40v8h8v-8h-8zM112 -48v24h-16v-24h16zM296 16v8h8v-8h-8zM456 16v8h8v-8h-8zM512 16v8h8v-8h-8zM568 16v8h8v-8h-8zM304 24v8h8v-8h-8zM520 24v8
h8v-8h-8zM88 -48v16h-8v8h8v80h-24v-96h8v-8h16zM112 -16v72h-16v-72h16zM472 40v16h-24v-16h24zM584 40v16h-24v-16h24zM120 64v8h8v-8h-8zM504 64v8h8v-8h-8zM616 64v8h8v-8h-8zM72 72v8h8v-8h-8zM128 72v8h8v-8h-8zM400 72v8h8v-8h-8zM456 72v8h8v-8h-8zM512 72v8h8v-8
h-8zM568 72v8h8v-8h-8zM624 72v8h8v-8h-8zM144 -16v96h-8v8h-40v-24h24v-80h24zM408 80v8h8v-8h-8zM472 64v16h-8v8h-16v-16h8v-8h16zM552 8v24h-24v48h-8v8h-40v-24h24v-48h8v-8h40zM288 400v8h8v-8h-8zM72 408v8h8v-8h-8zM128 408v8h8v-8h-8zM240 408v8h8v-8h-8zM296 408
v8h8v-8h-8zM80 416v8h8v-8h-8zM248 416v8h8v-8h-8zM112 400v24h-24v24h-24v-40h8v-8h40zM112 432v16h-16v-16h16zM144 432v16h-24v-16h24zM200 -72v520h-24v-520h24zM440 64v24h-24v360h-24v-376h8v-8h40zM440 96v352h-16v-352h16zM232 456v8h8v-8h-8zM448 456v8h8v-8h-8z
M72 464v8h8v-8h-8zM128 464v8h8v-8h-8zM184 464v8h8v-8h-8zM240 464v8h8v-8h-8zM400 464v8h8v-8h-8zM456 464v8h8v-8h-8zM144 456v16h-8v8h-40v-24h24v8h8v-8h16zM200 456v16h-8v8h-40v-24h24v8h8v-8h16zM440 8v24h-128v384h-8v8h-48v48h-8v8h-40v-24h24v-48h8v-8h48v-384h8
v-8h144zM472 96v376h-8v8h-40v-24h24v-360h24zM56 -112v176h8v8h8v-8h16v16h-8v8h8v8h64v-120h-8v-8h-8v8h-16v-16h8v-8h-8v-8h-24v-16h72v520h-16v-24h-8v-8h-8v8h-16v-16h8v-8h-8v-8h-64v64h8v8h8v-8h16v16h-8v8h8v8h176v-56h56v-392h120v16h-56v400h8v8h8v-8h16v16h-8v8
h8v8h64v-392h56v-56h16v24h8v8h8v-8h16v16h-8v8h8v8h64v-8h-8v-8h-8v8h-40v-24h24v-8h-24v-24h-8v-8h-8v8h-16v-16h8v-8h-8v-8h-64v56h-16v-24h-8v-8h-8v8h-16v-16h8v-8h-8v-8h-168v392h-56v56h-16v-528h-8v-8h-8v8h-16v-16h8v-8h-8v-8h-120z" />
    <glyph glyph-name="O" unicode="O" horiz-adv-x="448" 
d="M128 16v8h8v-8h-8zM240 16v8h8v-8h-8zM136 24v8h8v-8h-8zM256 40v16h-24v-16h24zM120 64v8h8v-8h-8zM456 64v8h8v-8h-8zM72 72v8h8v-8h-8zM128 72v8h8v-8h-8zM240 72v8h8v-8h-8zM296 72v8h8v-8h-8zM408 72v8h8v-8h-8zM464 72v8h8v-8h-8zM80 80v8h8v-8h-8zM280 64v24h-16
v-24h16zM416 80v8h8v-8h-8zM312 96v16h-24v-16h24zM296 128v8h8v-8h-8zM352 128v8h8v-8h-8zM336 120v24h-16v-24h16zM368 152v24h-24v-24h24zM400 184v8h8v-8h-8zM296 192v8h8v-8h-8zM352 192v8h8v-8h-8zM408 192v8h8v-8h-8zM304 200v8h8v-8h-8zM368 184v16h-8v8h-16v-16h8
v-8h16zM224 8v24h-80v48h-8v8h-48v248h-24v-264h8v-8h48v-48h8v-8h96zM288 344v8h8v-8h-8zM72 352v8h8v-8h-8zM128 352v8h8v-8h-8zM240 352v8h8v-8h-8zM296 352v8h8v-8h-8zM112 344v24h-16v-24h16zM248 360v8h8v-8h-8zM144 376v16h-24v-16h24zM128 408v8h8v-8h-8zM184 408v8
h8v-8h-8zM168 400v24h-16v-24h16zM200 432v16h-24v-16h24zM224 40v24h8v8h8v-8h16v16h-8v8h8v8h24v24h8v8h8v-8h16v16h-8v8h8v8h24v24h-56v160h-56v112h-16v-24h-8v-8h-8v8h-16v-16h8v-8h-8v-8h-24v-24h-8v-8h-8v8h-16v-16h8v-8h-8v-8h-24v-240h56v-56h72zM336 184v24h-24
v152h-8v8h-48v80h-24v-96h8v-8h48v-152h8v-8h40zM336 216v232h-72v-72h56v-160h16zM344 456v8h8v-8h-8zM184 464v8h8v-8h-8zM240 464v8h8v-8h-8zM352 464v8h8v-8h-8zM256 456v16h-8v8h-40v-24h24v8h8v-8h16zM368 216v256h-8v8h-96v-24h80v-240h24zM112 0v56h-56v288h8v8h8
v-8h16v16h-8v8h8v8h24v24h8v8h8v-8h16v16h-8v8h8v8h24v24h8v8h8v-8h16v16h-8v8h8v8h176v-272h56v-120h56v-8h-8v-8h-8v8h-48v112h-8v8h-40v-24h24v-112h8v-8h48v-8h-64v120h-16v-32h-8v-8h-8v8h-16v-16h8v-8h-8v-8h-24v-24h-8v-8h-8v8h-16v-16h8v-8h-8v-8h-24v-24h-8v-8h-8
v8h-16v-16h8v-8h-8v-8h-120z" />
    <glyph glyph-name="P" unicode="P" horiz-adv-x="504" 
d="M72 -208v8h8v-8h-8zM184 -208v8h8v-8h-8zM80 -200v8h8v-8h-8zM168 -216v24h-80v80h-24v-96h8v-8h96zM72 -96v8h8v-8h-8zM128 -96v8h8v-8h-8zM112 -104v24h-16v-24h16zM144 -72v72h-24v-72h24zM168 -184v184h-16v-80h-8v-8h-8v8h-16v-16h8v-8h-8v-8h-24v-72h72zM200 -184
v184h-24v-184h24zM128 16v8h8v-8h-8zM184 16v8h8v-8h-8zM464 16v8h8v-8h-8zM168 8v24h-16v-24h16zM200 8v16h-8v8h-16v-16h8v-8h16zM448 8v24h-240v-24h240zM200 40v16h-24v-16h24zM480 40v16h-24v-16h24zM512 64v8h8v-8h-8zM184 72v8h8v-8h-8zM352 72v8h8v-8h-8zM464 72v8
h8v-8h-8zM520 72v8h8v-8h-8zM336 64v24h-128v-24h128zM368 96v16h-24v-16h24zM352 128v8h8v-8h-8zM408 128v8h8v-8h-8zM392 120v24h-16v-24h16zM400 400v8h8v-8h-8zM72 408v8h8v-8h-8zM128 408v8h8v-8h-8zM240 408v8h8v-8h-8zM408 408v8h8v-8h-8zM80 416v8h8v-8h-8zM248 416
v8h8v-8h-8zM112 400v24h-24v24h-24v-40h8v-8h40zM112 432v16h-16v-16h16zM144 432v16h-24v-16h24zM200 64v16h-8v8h8v360h-24v-376h8v-8h16zM336 96v24h8v8h8v-8h16v16h-8v8h8v8h24v240h-168v56h-16v-352h128zM232 456v8h8v-8h-8zM72 464v8h8v-8h-8zM128 464v8h8v-8h-8z
M184 464v8h8v-8h-8zM240 464v8h8v-8h-8zM144 456v16h-8v8h-40v-24h24v8h8v-8h16zM200 456v16h-8v8h-40v-24h24v8h8v-8h16zM424 152v264h-8v8h-160v48h-8v8h-40v-24h24v-48h8v-8h160v-248h24zM56 -224v120h8v8h8v-8h16v16h-8v8h8v8h24v80h8v8h8v-8h16v16h-8v8h8v8h24v408h-16
v-24h-8v-8h-8v8h-16v-16h8v-8h-8v-8h-64v64h8v8h8v-8h16v16h-8v8h8v8h176v-56h168v-288h-8v-8h-8v8h-16v-16h8v-8h-8v-8h-24v-24h-8v-8h-8v8h-16v-16h8v-8h-8v-8h-136v-16h240v24h8v8h8v-8h16v16h-8v8h8v8h64v-8h-8v-8h-8v8h-40v-24h24v-8h-24v-24h-8v-8h-8v8h-16v-16h8v-8
h-8v-8h-248v-192h-8v-8h-8v8h-16v-16h8v-8h-8v-8h-120z" />
    <glyph glyph-name="Q" unicode="Q" horiz-adv-x="448" 
d="M184 -152v8h8v-8h-8zM352 -152v8h8v-8h-8zM192 -144v8h8v-8h-8zM368 -128v16h-24v-16h24zM352 -96v8h8v-8h-8zM408 -96v8h8v-8h-8zM392 -104v24h-16v-24h16zM336 -160v24h-136v80h-24v-96h8v-8h152zM184 -40v8h8v-8h-8zM296 -40v8h8v-8h-8zM280 -48v24h-72v-24h72z
M312 -16v16h-24v-16h24zM128 16v8h8v-8h-8zM296 16v8h8v-8h-8zM352 16v8h8v-8h-8zM136 24v8h8v-8h-8zM312 8v16h-8v8h-16v-16h8v-8h16zM336 8v24h-16v-24h16zM424 -72v128h-24v-128h24zM120 64v8h8v-8h-8zM456 64v8h8v-8h-8zM72 72v8h8v-8h-8zM128 72v8h8v-8h-8zM408 72v8h8
v-8h-8zM464 72v8h8v-8h-8zM80 80v8h8v-8h-8zM184 128v8h8v-8h-8zM240 128v8h8v-8h-8zM192 136v8h8v-8h-8zM224 120v24h-24v24h-24v-40h8v-8h40zM224 152v16h-16v-16h16zM256 152v16h-24v-16h24zM288 176v8h8v-8h-8zM184 184v8h8v-8h-8zM240 184v8h8v-8h-8zM296 184v8h8v-8
h-8zM256 176v16h-8v8h-40v-24h24v8h8v-8h16zM312 40v152h-8v8h-40v-24h24v-136h24zM344 344v8h8v-8h-8zM296 352v8h8v-8h-8zM352 352v8h8v-8h-8zM304 360v8h8v-8h-8zM288 400v8h8v-8h-8zM240 408v8h8v-8h-8zM296 408v8h8v-8h-8zM248 416v8h8v-8h-8zM280 8v24h-136v48h-8v8
h-48v360h-24v-376h8v-8h48v-48h8v-8h152zM336 40v296h-56v56h-56v56h-128v-352h56v-56h128v128h-16v-24h-8v-8h-8v8h-16v-16h8v-8h-8v-8h-64v64h8v8h8v-8h16v16h-8v8h8v8h120v-168h16zM232 456v8h8v-8h-8zM72 464v8h8v-8h-8zM240 464v8h8v-8h-8zM368 40v320h-8v8h-48v48h-8
v8h-48v48h-8v8h-152v-24h136v-48h8v-8h48v-48h8v-8h48v-304h24zM168 -168v120h8v8h8v-8h16v16h-8v8h8v8h80v16h-168v56h-56v400h8v8h8v-8h16v16h-8v8h8v8h176v-56h56v-56h56v-344h-8v-8h-8v8h-16v-16h8v-8h-8v-8h-24v-24h-8v-8h-8v8h-16v-16h8v-8h-8v-8h-80v-72h128v24h8v8
h8v-8h16v16h-8v8h8v8h24v136h8v8h8v-8h16v16h-8v8h8v8h64v-8h-8v-8h-8v8h-40v-24h24v-8h-24v-136h-8v-8h-8v8h-16v-16h8v-8h-8v-8h-24v-24h-8v-8h-8v8h-16v-16h8v-8h-8v-8h-176z" />
    <glyph glyph-name="R" unicode="R" horiz-adv-x="504" 
d="M72 -96v8h8v-8h-8zM184 -96v8h8v-8h-8zM408 -96v8h8v-8h-8zM464 -96v8h8v-8h-8zM80 -88v8h8v-8h-8zM416 -88v8h8v-8h-8zM168 -104v24h-80v24h-24v-40h8v-8h96zM72 -40v8h8v-8h-8zM128 -40v8h8v-8h-8zM112 -48v24h-16v-24h16zM88 -48v16h-8v8h8v80h-24v-96h8v-8h16z
M112 -16v72h-16v-72h16zM480 -72v128h-24v-128h24zM120 64v8h8v-8h-8zM512 64v8h8v-8h-8zM72 72v8h8v-8h-8zM128 72v8h8v-8h-8zM464 72v8h8v-8h-8zM520 72v8h8v-8h-8zM144 -16v96h-8v8h-40v-24h24v-80h24zM200 -72v240h-24v-240h24zM128 184v8h8v-8h-8zM240 184v8h8v-8h-8z
M136 192v8h8v-8h-8zM200 176v24h-24v-24h24zM224 176v24h-16v-24h16zM256 208v16h-24v-16h24zM400 232v8h8v-8h-8zM240 240v8h8v-8h-8zM296 240v8h8v-8h-8zM408 240v8h8v-8h-8zM280 232v24h-16v-24h16zM448 -104v24h-24v328h-8v8h-104v-8h-8v8h-16v-16h8v-8h104v-328h8v-8
h40zM312 264v16h-24v-16h24zM296 296v8h8v-8h-8zM352 296v8h8v-8h-8zM336 288v24h-16v-24h16zM72 408v8h8v-8h-8zM128 408v8h8v-8h-8zM80 416v8h8v-8h-8zM112 400v24h-24v24h-24v-40h8v-8h40zM112 432v16h-16v-16h16zM144 432v16h-24v-16h24zM200 208v240h-24v-240h24z
M224 208v24h8v8h8v-8h16v16h-8v8h8v8h24v24h8v8h8v-8h16v16h-8v8h8v8h24v128h-128v-240h16zM344 456v8h8v-8h-8zM72 464v8h8v-8h-8zM128 464v8h8v-8h-8zM184 464v8h8v-8h-8zM352 464v8h8v-8h-8zM144 456v16h-8v8h-40v-24h24v8h8v-8h16zM200 456v16h-8v8h-40v-24h24v8h8v-8
h16zM368 320v152h-8v8h-152v-24h136v-136h24zM56 -112v176h8v8h8v-8h16v16h-8v8h8v8h64v-120h-8v-8h-8v8h-16v-16h8v-8h-8v-8h-24v-16h72v240h-56v8h8v8h8v-8h40v24h-24v8h24v240h-16v-24h-8v-8h-8v8h-16v-16h8v-8h-8v-8h-64v64h8v8h8v-8h16v16h-8v8h8v8h288v-176h-8v-8h-8
v8h-16v-16h8v-8h-8v-8h-24v-16h112v-336h16v136h8v8h8v-8h16v16h-8v8h8v8h64v-8h-8v-8h-8v8h-40v-24h24v-8h-24v-136h-8v-8h-8v8h-16v-16h8v-8h-8v-8h-64v336h-128v-24h-8v-8h-8v8h-16v-16h8v-8h-8v-8h-24v-248h-8v-8h-8v8h-16v-16h8v-8h-8v-8h-120z" />
    <glyph glyph-name="S" unicode="S" horiz-adv-x="504" 
d="M128 16v8h8v-8h-8zM352 16v8h8v-8h-8zM464 16v8h8v-8h-8zM136 24v8h8v-8h-8zM448 8v24h-80v-8h-8v8h-16v-16h8v-8h96zM368 40v16h-24v-16h24zM480 40v16h-24v-16h24zM120 64v8h8v-8h-8zM512 64v8h8v-8h-8zM72 72v8h8v-8h-8zM128 72v8h8v-8h-8zM184 72v8h8v-8h-8zM240 72
v8h8v-8h-8zM352 72v8h8v-8h-8zM408 72v8h8v-8h-8zM464 72v8h8v-8h-8zM520 72v8h8v-8h-8zM80 80v8h8v-8h-8zM192 80v8h8v-8h-8zM392 64v24h-16v-24h16zM176 120v8h8v-8h-8zM128 128v8h8v-8h-8zM184 128v8h8v-8h-8zM136 136v8h8v-8h-8zM336 8v24h-192v48h-8v8h-48v80h-24v-96
h8v-8h48v-48h8v-8h208zM224 64v24h-24v48h-8v8h-48v24h-24v-40h8v-8h48v-48h8v-8h40zM224 96v72h-72v-16h56v-56h16zM232 176v8h8v-8h-8zM400 176v8h8v-8h-8zM72 184v8h8v-8h-8zM128 184v8h8v-8h-8zM240 184v8h8v-8h-8zM296 184v8h8v-8h-8zM408 184v8h8v-8h-8zM144 176v16
h-8v8h-40v-24h24v8h8v-8h16zM256 96v96h-8v8h-96v-24h80v-80h24zM304 192v8h8v-8h-8zM288 232v8h8v-8h-8zM184 240v8h8v-8h-8zM296 240v8h8v-8h-8zM192 248v8h8v-8h-8zM240 296v8h8v-8h-8zM352 296v8h8v-8h-8zM248 304v8h8v-8h-8zM336 288v24h-80v24h-24v-40h8v-8h96z
M336 320v16h-72v-16h72zM240 352v8h8v-8h-8zM352 352v8h8v-8h-8zM336 344v24h-72v-24h72zM368 320v40h-8v8h-16v-16h8v-8h-8v-24h24zM424 96v96h-8v8h-104v48h-8v8h-104v136h-24v-152h8v-8h104v-48h8v-8h104v-80h24zM184 408v8h8v-8h-8zM240 408v8h8v-8h-8zM224 400v24h-16
v-24h16zM256 432v16h-24v-16h24zM344 456v8h8v-8h-8zM240 464v8h8v-8h-8zM352 464v8h8v-8h-8zM368 376v96h-8v8h-96v-24h80v-80h24zM112 0v56h-56v120h8v8h8v-8h16v16h-8v8h8v8h176v-120h-8v-8h-8v8h-16v-16h8v-8h-8v-8h-64v56h-56v56h-16v-72h56v-56h184v24h8v8h8v-8h16v16
h-8v8h8v8h24v72h-112v56h-112v176h8v8h8v-8h16v16h-8v8h8v8h24v24h8v8h8v-8h16v16h-8v8h8v8h120v-176h-8v-8h-8v8h-16v-16h8v-8h-8v-8h-120v64h8v8h8v-8h16v16h-8v8h8v8h80v72h-72v-24h-8v-8h-8v8h-16v-16h8v-8h-8v-8h-24v-128h112v-56h112v-120h-8v-8h-8v8h-16v-16h8v-8h-8
v-8h-24v-16h72v24h8v8h8v-8h16v16h-8v8h8v8h64v-8h-8v-8h-8v8h-40v-24h24v-8h-24v-24h-8v-8h-8v8h-16v-16h8v-8h-8v-8h-344z" />
    <glyph glyph-name="T" unicode="T" horiz-adv-x="448" 
d="M184 -48v8h8v-8h-8zM296 -48v8h8v-8h-8zM192 -40v8h8v-8h-8zM280 -56v24h-80v24h-24v-40h8v-8h96zM280 -24v16h-72v-16h72zM288 0v8h8v-8h-8zM184 8v8h8v-8h-8zM240 8v8h8v-8h-8zM296 8v8h8v-8h-8zM224 0v24h-16v-24h16zM312 -24v40h-8v8h-48v-8h-8v8h-16v-16h8v-8h48
v-24h24zM72 352v8h8v-8h-8zM184 352v8h8v-8h-8zM408 352v8h8v-8h-8zM80 360v8h8v-8h-8zM192 360v8h8v-8h-8zM416 360v8h8v-8h-8zM168 344v48h-72v-24h-8v24h-24v-40h8v-8h96zM176 400v8h8v-8h-8zM72 408v8h8v-8h-8zM184 408v8h8v-8h-8zM88 400v16h-8v8h8v24h-24v-40h8v-8h16
zM256 32v416h-24v-416h24zM400 456v8h8v-8h-8zM72 464v8h8v-8h-8zM240 464v8h8v-8h-8zM408 464v8h8v-8h-8zM256 456v16h-8v8h-152v-24h136v8h8v-8h16zM168 -64v64h8v8h8v-8h16v16h-8v8h8v8h24v416h-128v-16h112v-64h-8v48h-8v8h-96v-24h80v-48h8v-8h-8v-8h-120v120h8v8h8v-8
h16v16h-8v8h8v8h344v-120h-8v104h-8v8h-152v-24h136v-104h8v-8h-8v-8h-8v112h-128v-416h56v-64h-8v-8h-8v8h-16v-16h8v-8h-8v-8h-120z" />
    <glyph glyph-name="U" unicode="U" horiz-adv-x="504" 
d="M240 16v8h8v-8h-8zM408 16v8h8v-8h-8zM464 16v8h8v-8h-8zM248 24v8h8v-8h-8zM448 8v24h-24v-8h-8v8h-16v-16h8v-8h40zM480 40v16h-24v-16h24zM232 64v8h8v-8h-8zM512 64v8h8v-8h-8zM184 72v8h8v-8h-8zM240 72v8h8v-8h-8zM464 72v8h8v-8h-8zM520 72v8h8v-8h-8zM192 80v8h8
v-8h-8zM352 296v8h8v-8h-8zM408 296v8h8v-8h-8zM360 304v8h8v-8h-8zM424 40v264h-8v8h-16v-16h8v-8h-8v-248h24zM344 344v8h8v-8h-8zM296 352v8h8v-8h-8zM352 352v8h8v-8h-8zM304 360v8h8v-8h-8zM72 408v8h8v-8h-8zM128 408v8h8v-8h-8zM80 416v8h8v-8h-8zM112 400v24h-24v24
h-24v-40h8v-8h40zM112 432v16h-16v-16h16zM144 432v16h-24v-16h24zM392 288v24h-24v48h-8v8h-48v80h-24v-96h8v-8h48v-48h8v-8h40zM392 320v128h-72v-72h56v-56h16zM176 456v8h8v-8h-8zM400 456v8h8v-8h-8zM72 464v8h8v-8h-8zM128 464v8h8v-8h-8zM184 464v8h8v-8h-8z
M296 464v8h8v-8h-8zM408 464v8h8v-8h-8zM144 456v16h-8v8h-40v-24h24v8h8v-8h16zM392 8v24h-136v48h-8v8h-48v384h-8v8h-40v-24h24v-384h8v-8h48v-48h8v-8h152zM424 320v152h-8v8h-96v-24h80v-136h24zM224 0v56h-56v392h-16v-24h-8v-8h-8v8h-16v-16h8v-8h-8v-8h-64v64h8v8h8
v-8h16v16h-8v8h8v8h120v-392h56v-56h128v240h-56v56h-56v120h8v8h8v-8h16v16h-8v8h8v8h120v-448h16v24h8v8h8v-8h16v16h-8v8h8v8h64v-8h-8v-8h-8v8h-40v-24h24v-8h-24v-24h-8v-8h-8v8h-16v-16h8v-8h-8v-8h-232z" />
    <glyph glyph-name="V" unicode="V" horiz-adv-x="504" 
d="M72 16v8h8v-8h-8zM240 16v8h8v-8h-8zM464 16v8h8v-8h-8zM80 24v8h8v-8h-8zM448 8v24h-192v-8h-8v8h-16v-16h8v-8h208zM480 40v16h-24v-16h24zM512 64v8h8v-8h-8zM464 72v8h8v-8h-8zM520 72v8h8v-8h-8zM256 40v72h-24v-72h24zM240 128v8h8v-8h-8zM296 128v8h8v-8h-8z
M280 120v24h-16v-24h16zM224 8v24h-136v248h-24v-264h8v-8h152zM72 296v8h8v-8h-8zM184 296v8h8v-8h-8zM168 288v24h-72v-24h72zM88 288v16h-8v8h8v80h-24v-96h8v-8h16zM72 408v8h8v-8h-8zM128 408v8h8v-8h-8zM352 408v8h8v-8h-8zM408 408v8h8v-8h-8zM112 400v24h-16v-24h16
zM360 416v8h8v-8h-8zM144 432v16h-24v-16h24zM168 320v128h-16v-24h-8v-8h-8v8h-16v-16h8v-8h-8v-8h-24v-72h72zM312 152v296h-24v-296h24zM392 400v24h-24v24h-24v-40h8v-8h40zM392 432v16h-16v-16h16zM176 456v8h8v-8h-8zM400 456v8h8v-8h-8zM128 464v8h8v-8h-8zM184 464
v8h8v-8h-8zM296 464v8h8v-8h-8zM352 464v8h8v-8h-8zM408 464v8h8v-8h-8zM200 320v152h-8v8h-40v-24h24v-136h24zM368 456v16h-8v8h-40v-24h24v8h8v-8h16zM424 432v40h-8v8h-40v-24h24v-24h24zM56 0v400h8v8h8v-8h16v16h-8v8h8v8h24v24h8v8h8v-8h16v16h-8v8h8v8h64v-176h-8
v-8h-8v8h-16v-16h8v-8h-8v-8h-80v-240h128v80h8v8h8v-8h16v16h-8v8h8v8h24v304h8v8h8v-8h16v16h-8v8h8v8h120v-64h-8v-8h-8v8h-16v-16h8v-8h-8v-8h-64v56h-16v-304h-8v-8h-8v8h-16v-16h8v-8h-8v-8h-24v-72h184v24h8v8h8v-8h16v16h-8v8h8v8h64v-8h-8v-8h-8v8h-40v-24h24v-8
h-24v-24h-8v-8h-8v8h-16v-16h8v-8h-8v-8h-400z" />
    <glyph glyph-name="W" unicode="W" horiz-adv-x="784" 
d="M240 16v8h8v-8h-8zM352 16v8h8v-8h-8zM520 16v8h8v-8h-8zM632 16v8h8v-8h-8zM688 16v8h8v-8h-8zM744 16v8h8v-8h-8zM248 24v8h8v-8h-8zM528 24v8h8v-8h-8zM696 24v8h8v-8h-8zM368 40v16h-24v-16h24zM648 40v16h-24v-16h24zM760 40v16h-24v-16h24zM232 64v8h8v-8h-8z
M512 64v8h8v-8h-8zM680 64v8h8v-8h-8zM792 64v8h8v-8h-8zM184 72v8h8v-8h-8zM240 72v8h8v-8h-8zM352 72v8h8v-8h-8zM408 72v8h8v-8h-8zM520 72v8h8v-8h-8zM576 72v8h8v-8h-8zM632 72v8h8v-8h-8zM688 72v8h8v-8h-8zM744 72v8h8v-8h-8zM800 72v8h8v-8h-8zM192 80v8h8v-8h-8z
M392 64v24h-16v-24h16zM616 8v24h-80v48h-8v8h-104v-8h-8v8h-16v-16h8v-8h104v-48h8v-8h96zM584 80v8h8v-8h-8zM648 64v16h-8v8h-16v-16h8v-8h16zM728 8v24h-24v48h-8v8h-40v-24h24v-48h8v-8h40zM352 296v8h8v-8h-8zM408 296v8h8v-8h-8zM360 304v8h8v-8h-8zM424 96v208h-8v8
h-16v-16h8v-8h-8v-192h24zM344 344v8h8v-8h-8zM296 352v8h8v-8h-8zM352 352v8h8v-8h-8zM304 360v8h8v-8h-8zM568 400v8h8v-8h-8zM72 408v8h8v-8h-8zM128 408v8h8v-8h-8zM520 408v8h8v-8h-8zM576 408v8h8v-8h-8zM80 416v8h8v-8h-8zM528 416v8h8v-8h-8zM112 400v24h-24v24h-24
v-40h8v-8h40zM112 432v16h-16v-16h16zM144 432v16h-24v-16h24zM392 288v24h-24v48h-8v8h-48v80h-24v-96h8v-8h48v-48h8v-8h40zM392 320v128h-72v-72h56v-56h16zM616 64v24h-24v328h-8v8h-48v24h-24v-40h8v-8h48v-328h8v-8h40zM616 96v352h-72v-16h56v-336h16zM176 456v8h8
v-8h-8zM400 456v8h8v-8h-8zM624 456v8h8v-8h-8zM72 464v8h8v-8h-8zM128 464v8h8v-8h-8zM184 464v8h8v-8h-8zM296 464v8h8v-8h-8zM408 464v8h8v-8h-8zM520 464v8h8v-8h-8zM632 464v8h8v-8h-8zM144 456v16h-8v8h-40v-24h24v8h8v-8h16zM336 8v24h-80v48h-8v8h-48v384h-8v8h-40
v-24h24v-384h8v-8h48v-48h8v-8h96zM424 320v152h-8v8h-96v-24h80v-136h24zM648 96v376h-8v8h-96v-24h80v-360h24zM224 0v56h-56v392h-16v-24h-8v-8h-8v8h-16v-16h8v-8h-8v-8h-64v64h8v8h8v-8h16v16h-8v8h8v8h120v-392h56v-56h72v24h8v8h8v-8h16v16h-8v8h8v8h24v184h-56v56
h-56v120h8v8h8v-8h16v16h-8v8h8v8h120v-392h112v-56h72v16h-56v336h-56v64h8v8h8v-8h16v16h-8v8h8v8h120v-392h56v-56h16v24h8v8h8v-8h16v16h-8v8h8v8h64v-8h-8v-8h-8v8h-40v-24h24v-8h-24v-24h-8v-8h-8v8h-16v-16h8v-8h-8v-8h-64v56h-16v-24h-8v-8h-8v8h-16v-16h8v-8h-8v-8
h-120v56h-128v-24h-8v-8h-8v8h-16v-16h8v-8h-8v-8h-120z" />
    <glyph glyph-name="X" unicode="X" horiz-adv-x="504" 
d="M72 16v8h8v-8h-8zM184 16v8h8v-8h-8zM408 16v8h8v-8h-8zM464 16v8h8v-8h-8zM80 24v8h8v-8h-8zM416 24v8h8v-8h-8zM168 8v24h-80v24h-24v-40h8v-8h96zM480 40v16h-24v-16h24zM512 64v8h8v-8h-8zM72 72v8h8v-8h-8zM128 72v8h8v-8h-8zM464 72v8h8v-8h-8zM520 72v8h8v-8h-8z
M112 64v24h-16v-24h16zM88 64v16h-8v8h8v24h-24v-40h8v-8h16zM112 96v16h-16v-16h16zM120 120v8h8v-8h-8zM72 128v8h8v-8h-8zM128 128v8h8v-8h-8zM144 96v40h-8v8h-40v-24h24v-24h24zM200 40v128h-24v-128h24zM400 176v8h8v-8h-8zM184 184v8h8v-8h-8zM240 184v8h8v-8h-8z
M352 184v8h8v-8h-8zM408 184v8h8v-8h-8zM224 176v24h-16v-24h16zM360 192v8h8v-8h-8zM256 208v16h-24v-16h24zM240 240v8h8v-8h-8zM352 240v8h8v-8h-8zM336 232v24h-72v-24h72zM448 8v24h-24v160h-8v8h-48v48h-8v8h-16v-16h8v-8h-8v-48h8v-8h48v-160h8v-8h40zM368 264v72
h-24v-72h24zM232 344v8h8v-8h-8zM184 352v8h8v-8h-8zM240 352v8h8v-8h-8zM352 352v8h8v-8h-8zM408 352v8h8v-8h-8zM464 352v8h8v-8h-8zM192 360v8h8v-8h-8zM392 344v24h-16v-24h16zM472 360v8h8v-8h-8zM72 408v8h8v-8h-8zM128 408v8h8v-8h-8zM80 416v8h8v-8h-8zM112 400v24
h-24v24h-24v-40h8v-8h40zM112 432v16h-16v-16h16zM144 432v16h-24v-16h24zM424 376v72h-24v-72h24zM176 456v8h8v-8h-8zM456 456v8h8v-8h-8zM72 464v8h8v-8h-8zM128 464v8h8v-8h-8zM184 464v8h8v-8h-8zM408 464v8h8v-8h-8zM464 464v8h8v-8h-8zM144 456v16h-8v8h-40v-24h24v8
h8v-8h16zM256 232v16h-8v8h8v104h-8v8h-48v104h-8v8h-40v-24h24v-104h8v-8h48v-104h8v-8h16zM56 0v120h8v8h8v-8h16v16h-8v8h8v8h64v-64h-8v-8h-8v8h-16v-16h8v-8h-8v-8h-24v-16h72v136h8v8h8v-8h16v16h-8v8h8v8h24v128h-56v112h-16v-24h-8v-8h-8v8h-16v-16h8v-8h-8v-8h-64
v64h8v8h8v-8h16v16h-8v8h8v8h120v-112h56v-112h72v80h8v8h8v-8h16v16h-8v8h8v8h24v80h8v8h8v-8h16v16h-8v8h8v8h64v-120h-8v104h-8v8h-40v-24h24v-104h8v-8h-8v-8h-8v112h-16v-80h-8v-8h-8v8h-16v-16h8v-8h-8v-8h-24v-128h56v-168h16v24h8v8h8v-8h16v16h-8v8h8v8h64v-8h-8
v-8h-8v8h-40v-24h24v-8h-24v-24h-8v-8h-8v8h-16v-16h8v-8h-8v-8h-64v168h-56v56h-72v-24h-8v-8h-8v8h-16v-16h8v-8h-8v-8h-24v-136h-8v-8h-8v8h-16v-16h8v-8h-8v-8h-120z" />
    <glyph glyph-name="Y" unicode="Y" horiz-adv-x="504" 
d="M72 -152v8h8v-8h-8zM352 -152v8h8v-8h-8zM80 -144v8h8v-8h-8zM368 -128v16h-24v-16h24zM352 -96v8h8v-8h-8zM408 -96v8h8v-8h-8zM392 -104v24h-16v-24h16zM336 -160v24h-248v80h-24v-96h8v-8h264zM72 -40v8h8v-8h-8zM184 -40v8h8v-8h-8zM168 -48v24h-72v-24h72zM200 -16
v16h-24v-16h24zM336 -128v24h8v8h8v-8h16v16h-8v8h8v8h24v72h-184v-24h-8v-8h-8v8h-16v-16h8v-8h-8v-8h-80v-72h240zM424 -72v72h-24v-72h24zM184 16v8h8v-8h-8zM296 16v8h8v-8h-8zM408 16v8h8v-8h-8zM464 16v8h8v-8h-8zM280 8v24h-72v-24h72zM392 8v24h-80v-8h-8v8h-16v-16
h8v-8h96zM424 8v16h-8v8h-16v-16h8v-8h16zM448 8v24h-16v-24h16zM480 40v16h-24v-16h24zM288 64v8h8v-8h-8zM512 64v8h8v-8h-8zM184 72v8h8v-8h-8zM296 72v8h8v-8h-8zM464 72v8h8v-8h-8zM520 72v8h8v-8h-8zM192 80v8h8v-8h-8zM352 296v8h8v-8h-8zM408 296v8h8v-8h-8z
M360 304v8h8v-8h-8zM424 40v264h-8v8h-16v-16h8v-8h-8v-248h24zM344 344v8h8v-8h-8zM296 352v8h8v-8h-8zM352 352v8h8v-8h-8zM304 360v8h8v-8h-8zM72 408v8h8v-8h-8zM128 408v8h8v-8h-8zM80 416v8h8v-8h-8zM112 400v24h-24v24h-24v-40h8v-8h40zM112 432v16h-16v-16h16z
M144 432v16h-24v-16h24zM392 288v24h-24v48h-8v8h-48v80h-24v-96h8v-8h48v-48h8v-8h40zM392 320v128h-72v-72h56v-56h16zM176 456v8h8v-8h-8zM400 456v8h8v-8h-8zM72 464v8h8v-8h-8zM128 464v8h8v-8h-8zM184 464v8h8v-8h-8zM296 464v8h8v-8h-8zM408 464v8h8v-8h-8zM144 456
v16h-8v8h-40v-24h24v8h8v-8h16zM312 40v40h-8v8h-104v384h-8v8h-40v-24h24v-384h8v-8h104v-24h24zM424 320v152h-8v8h-96v-24h80v-136h24zM56 -168v120h8v8h8v-8h16v16h-8v8h8v8h80v24h8v8h8v-8h16v16h-8v8h8v8h80v16h-112v392h-16v-24h-8v-8h-8v8h-16v-16h8v-8h-8v-8h-64
v64h8v8h8v-8h16v16h-8v8h8v8h120v-392h112v-56h72v240h-56v56h-56v120h8v8h8v-8h16v16h-8v8h8v8h120v-448h16v24h8v8h8v-8h16v16h-8v8h8v8h64v-8h-8v-8h-8v8h-40v-24h24v-8h-24v-24h-8v-8h-8v8h-16v-16h8v-8h-8v-8h-24v-80h-8v-8h-8v8h-16v-16h8v-8h-8v-8h-24v-24h-8v-8h-8
v8h-16v-16h8v-8h-8v-8h-288z" />
    <glyph glyph-name="Z" unicode="Z" horiz-adv-x="448" 
d="M72 16v8h8v-8h-8zM408 16v8h8v-8h-8zM80 24v8h8v-8h-8zM424 40v16h-24v-16h24zM456 64v8h8v-8h-8zM408 72v8h8v-8h-8zM464 72v8h8v-8h-8zM184 128v8h8v-8h-8zM240 128v8h8v-8h-8zM192 136v8h8v-8h-8zM392 8v24h-304v136h-24v-152h8v-8h320zM72 184v8h8v-8h-8zM128 184v8
h8v-8h-8zM112 176v24h-16v-24h16zM256 152v72h-24v-72h24zM240 240v8h8v-8h-8zM352 240v8h8v-8h-8zM336 232v24h-72v-24h72zM144 208v72h-24v-72h24zM176 288v8h8v-8h-8zM128 296v8h8v-8h-8zM184 296v8h8v-8h-8zM224 120v24h-24v160h-8v8h-40v-24h24v-160h8v-8h40zM72 352v8
h8v-8h-8zM128 352v8h8v-8h-8zM80 360v8h8v-8h-8zM112 344v24h-24v24h-24v-40h8v-8h40zM112 376v16h-16v-16h16zM120 400v8h8v-8h-8zM72 408v8h8v-8h-8zM128 408v8h8v-8h-8zM144 376v40h-8v8h-40v-24h24v-24h24zM88 400v16h-8v8h8v24h-24v-40h8v-8h16zM344 456v8h8v-8h-8z
M72 464v8h8v-8h-8zM352 464v8h8v-8h-8zM368 264v208h-8v8h-264v-24h248v-192h24zM56 0v176h8v8h8v-8h16v16h-8v8h8v8h24v80h8v8h8v-8h16v16h-8v8h8v8h64v-168h16v80h8v8h8v-8h16v16h-8v8h8v8h80v184h-240v-16h56v-64h-8v-8h-8v8h-16v-16h8v-8h-8v-8h-64v120h8v8h8v-8h16v16
h-8v8h8v8h288v-232h-8v-8h-8v8h-16v-16h8v-8h-8v-8h-80v-80h-8v-8h-8v8h-16v-16h8v-8h-8v-8h-64v168h-16v-80h-8v-8h-8v8h-16v-16h8v-8h-8v-8h-24v-128h296v24h8v8h8v-8h16v16h-8v8h8v8h64v-8h-8v-8h-8v8h-40v-24h24v-8h-24v-24h-8v-8h-8v8h-16v-16h8v-8h-8v-8h-344z" />
    <glyph glyph-name="underscore" unicode="_" horiz-adv-x="448" 
d="M72 16v8h8v-8h-8zM408 16v8h8v-8h-8zM80 24v8h8v-8h-8zM64 64v8h8v-8h-8zM400 64v8h8v-8h-8zM72 72v8h8v-8h-8zM408 72v8h8v-8h-8zM56 0v64h8v-48h8v-8h320v24h-304v48h-8v8h8v8h8v-56h296v24h8v-24h24v40h-8v8h8v8h8v-64h-8v-8h-8v8h-16v-16h8v-8h-8v-8h-344z" />
    <glyph glyph-name="a" unicode="a" 
d="M16 16v8h8v-8h-8zM128 16v8h8v-8h-8zM184 16v8h8v-8h-8zM240 16v8h8v-8h-8zM24 24v8h8v-8h-8zM192 24v8h8v-8h-8zM144 40v16h-24v-16h24zM256 40v16h-24v-16h24zM288 64v8h8v-8h-8zM128 72v8h8v-8h-8zM184 72v8h8v-8h-8zM240 72v8h8v-8h-8zM296 72v8h8v-8h-8zM168 64v24
h-16v-24h16zM224 8v24h-24v48h-8v8h-16v-16h8v-8h-8v-48h8v-8h40zM176 176v8h8v-8h-8zM128 184v8h8v-8h-8zM184 184v8h8v-8h-8zM136 192v8h8v-8h-8zM112 8v24h-80v192h-24v-208h8v-8h96zM112 40v24h8v8h8v-8h16v16h-8v8h8v8h24v72h-56v56h-72v-184h72zM120 232v8h8v-8h-8z
M16 240v8h8v-8h-8zM128 240v8h8v-8h-8zM200 96v96h-8v8h-48v48h-8v8h-96v-24h80v-48h8v-8h48v-80h24zM0 0v232h8v8h8v-8h16v16h-8v8h8v8h120v-56h56v-168h16v24h8v8h8v-8h16v16h-8v8h8v8h64v-8h-8v-8h-8v8h-40v-24h24v-8h-24v-24h-8v-8h-8v8h-16v-16h8v-8h-8v-8h-64v56h-16
v-24h-8v-8h-8v8h-16v-16h8v-8h-8v-8h-120z" />
    <glyph glyph-name="b" unicode="b" 
d="M72 16v8h8v-8h-8zM184 16v8h8v-8h-8zM240 16v8h8v-8h-8zM80 24v8h8v-8h-8zM224 8v24h-24v-8h-8v8h-16v-16h8v-8h40zM256 40v16h-24v-16h24zM64 64v8h8v-8h-8zM288 64v8h8v-8h-8zM16 72v8h8v-8h-8zM72 72v8h8v-8h-8zM240 72v8h8v-8h-8zM296 72v8h8v-8h-8zM24 80v8h8v-8h-8
zM176 176v8h8v-8h-8zM128 184v8h8v-8h-8zM184 184v8h8v-8h-8zM136 192v8h8v-8h-8zM168 8v24h-80v48h-8v8h-48v136h-24v-152h8v-8h48v-48h8v-8h96zM168 40v128h-56v56h-72v-128h56v-56h72zM120 232v8h8v-8h-8zM16 240v8h8v-8h-8zM128 240v8h8v-8h-8zM200 40v152h-8v8h-48v48
h-8v8h-96v-24h80v-48h8v-8h48v-136h24zM32 232v16h-8v8h8v24h-24v-40h8v-8h16zM16 296v8h8v-8h-8zM72 296v8h8v-8h-8zM56 288v24h-16v-24h16zM88 320v72h-24v-72h24zM72 408v8h8v-8h-8zM128 408v8h8v-8h-8zM112 400v24h-16v-24h16zM32 288v16h-8v8h8v136h-24v-152h8v-8h16z
M56 320v80h8v8h8v-8h16v16h-8v8h8v8h24v16h-72v-128h16zM120 456v8h8v-8h-8zM16 464v8h8v-8h-8zM128 464v8h8v-8h-8zM144 432v40h-8v8h-96v-24h80v-24h24zM56 0v56h-56v400h8v8h8v-8h16v16h-8v8h8v8h120v-64h-8v-8h-8v8h-16v-16h8v-8h-8v-8h-24v-80h-8v-8h-8v8h-16v-16h8v-8
h-8v-8h-24v-16h112v-56h56v-168h16v24h8v8h8v-8h16v16h-8v8h8v8h64v-8h-8v-8h-8v8h-40v-24h24v-8h-24v-24h-8v-8h-8v8h-16v-16h8v-8h-8v-8h-176z" />
    <glyph glyph-name="c" unicode="c" 
d="M72 16v8h8v-8h-8zM240 16v8h8v-8h-8zM80 24v8h8v-8h-8zM256 40v16h-24v-16h24zM64 64v8h8v-8h-8zM288 64v8h8v-8h-8zM16 72v8h8v-8h-8zM72 72v8h8v-8h-8zM240 72v8h8v-8h-8zM296 72v8h8v-8h-8zM24 80v8h8v-8h-8zM128 128v8h8v-8h-8zM184 128v8h8v-8h-8zM136 136v8h8v-8
h-8zM224 8v24h-136v48h-8v8h-48v80h-24v-96h8v-8h48v-48h8v-8h152zM16 184v8h8v-8h-8zM72 184v8h8v-8h-8zM56 176v24h-16v-24h16zM88 208v16h-24v-16h24zM168 120v24h-24v80h-24v-96h8v-8h40zM168 152v72h-16v-72h16zM176 232v8h8v-8h-8zM72 240v8h8v-8h-8zM128 240v8h8v-8
h-8zM184 240v8h8v-8h-8zM144 232v16h-8v8h-40v-24h24v8h8v-8h16zM200 152v96h-8v8h-40v-24h24v-80h24zM56 0v56h-56v120h8v8h8v-8h16v16h-8v8h8v8h24v24h8v8h8v-8h16v16h-8v8h8v8h120v-120h-8v-8h-8v8h-16v-16h8v-8h-8v-8h-64v112h-16v-24h-8v-8h-8v8h-16v-16h8v-8h-8v-8
h-24v-72h56v-56h128v24h8v8h8v-8h16v16h-8v8h8v8h64v-8h-8v-8h-8v8h-40v-24h24v-8h-24v-24h-8v-8h-8v8h-16v-16h8v-8h-8v-8h-176z" />
    <glyph glyph-name="d" unicode="d" 
d="M72 16v8h8v-8h-8zM184 16v8h8v-8h-8zM240 16v8h8v-8h-8zM80 24v8h8v-8h-8zM224 8v24h-24v-8h-8v8h-16v-16h8v-8h40zM256 40v16h-24v-16h24zM64 64v8h8v-8h-8zM288 64v8h8v-8h-8zM16 72v8h8v-8h-8zM72 72v8h8v-8h-8zM240 72v8h8v-8h-8zM296 72v8h8v-8h-8zM24 80v8h8v-8h-8
zM168 8v24h-80v48h-8v8h-48v80h-24v-96h8v-8h48v-48h8v-8h96zM16 184v8h8v-8h-8zM72 184v8h8v-8h-8zM56 176v24h-16v-24h16zM88 208v16h-24v-16h24zM168 40v184h-72v-24h-8v-8h-8v8h-16v-16h8v-8h-8v-8h-24v-72h56v-56h72zM72 240v8h8v-8h-8zM184 240v8h8v-8h-8zM168 232v24
h-72v-24h72zM200 40v208h-8v8h-16v-16h8v-8h-8v-192h24zM128 296v8h8v-8h-8zM184 296v8h8v-8h-8zM136 304v8h8v-8h-8zM200 264v40h-8v8h-16v-16h8v-8h-8v-24h24zM120 400v8h8v-8h-8zM72 408v8h8v-8h-8zM128 408v8h8v-8h-8zM80 416v8h8v-8h-8zM168 288v24h-24v104h-8v8h-48
v24h-24v-40h8v-8h48v-104h8v-8h40zM168 320v128h-72v-16h56v-112h16zM176 456v8h8v-8h-8zM72 464v8h8v-8h-8zM184 464v8h8v-8h-8zM200 320v152h-8v8h-96v-24h80v-136h24zM56 0v56h-56v120h8v8h8v-8h16v16h-8v8h8v8h24v24h8v8h8v-8h16v16h-8v8h8v8h80v16h-56v112h-56v64h8v8
h8v-8h16v16h-8v8h8v8h120v-448h16v24h8v8h8v-8h16v16h-8v8h8v8h64v-8h-8v-8h-8v8h-40v-24h24v-8h-24v-24h-8v-8h-8v8h-16v-16h8v-8h-8v-8h-176z" />
    <glyph glyph-name="e" unicode="e" 
d="M16 16v8h8v-8h-8zM240 16v8h8v-8h-8zM24 24v8h8v-8h-8zM224 8v24h-192v24h-24v-40h8v-8h208zM256 40v16h-24v-16h24zM288 64v8h8v-8h-8zM16 72v8h8v-8h-8zM72 72v8h8v-8h-8zM240 72v8h8v-8h-8zM296 72v8h8v-8h-8zM56 64v24h-16v-24h16zM88 96v16h-24v-16h24zM72 128v8h8
v-8h-8zM184 128v8h8v-8h-8zM168 120v24h-72v-24h72zM32 64v16h-8v8h8v80h-24v-96h8v-8h16zM16 184v8h8v-8h-8zM72 184v8h8v-8h-8zM56 176v24h-16v-24h16zM88 208v16h-24v-16h24zM56 96v24h8v8h8v-8h16v16h-8v8h8v8h80v72h-72v-24h-8v-8h-8v8h-16v-16h8v-8h-8v-8h-24v-72h16z
M176 232v8h8v-8h-8zM72 240v8h8v-8h-8zM184 240v8h8v-8h-8zM200 152v96h-8v8h-96v-24h80v-80h24zM0 0v176h8v8h8v-8h16v16h-8v8h8v8h24v24h8v8h8v-8h16v16h-8v8h8v8h120v-120h-8v-8h-8v8h-16v-16h8v-8h-8v-8h-80v-24h-8v-8h-8v8h-16v-16h8v-8h-8v-8h-24v-16h184v24h8v8h8v-8
h16v16h-8v8h8v8h64v-8h-8v-8h-8v8h-40v-24h24v-8h-24v-24h-8v-8h-8v8h-16v-16h8v-8h-8v-8h-232z" />
    <glyph glyph-name="f" unicode="f" horiz-adv-x="224" 
d="M16 -152v8h8v-8h-8zM128 -152v8h8v-8h-8zM24 -144v8h8v-8h-8zM120 -48v8h8v-8h-8zM72 -40v8h8v-8h-8zM128 -40v8h8v-8h-8zM80 -32v8h8v-8h-8zM112 -160v24h-80v136h-24v-152h8v-8h96zM112 -128v72h-56v56h-16v-128h72zM144 -128v96h-8v8h-48v24h-24v-40h8v-8h48v-80h24z
M16 16v8h8v-8h-8zM72 16v8h8v-8h-8zM184 16v8h8v-8h-8zM88 8v16h-8v8h-40v-24h24v8h8v-8h16zM168 8v24h-72v-24h72zM32 8v16h-8v8h8v24h-24v-40h8v-8h16zM200 40v16h-24v-16h24zM232 64v8h8v-8h-8zM16 72v8h8v-8h-8zM72 72v8h8v-8h-8zM184 72v8h8v-8h-8zM240 72v8h8v-8h-8z
M56 64v24h-16v-24h16zM88 96v16h-24v-16h24zM72 128v8h8v-8h-8zM128 128v8h8v-8h-8zM112 120v24h-16v-24h16zM120 400v8h8v-8h-8zM72 408v8h8v-8h-8zM128 408v8h8v-8h-8zM80 416v8h8v-8h-8zM32 64v16h-8v8h8v360h-24v-376h8v-8h16zM56 96v24h8v8h8v-8h16v16h-8v8h8v8h24v240
h-56v56h-16v-352h16zM64 456v8h8v-8h-8zM16 464v8h8v-8h-8zM72 464v8h8v-8h-8zM144 152v264h-8v8h-48v48h-8v8h-40v-24h24v-48h8v-8h48v-248h24zM0 -168v624h8v8h8v-8h16v16h-8v8h8v8h64v-56h56v-288h-8v-8h-8v8h-16v-16h8v-8h-8v-8h-24v-24h-8v-8h-8v8h-16v-16h8v-8h-8v-8
h-24v-16h128v24h8v8h8v-8h16v16h-8v8h8v8h64v-8h-8v-8h-8v8h-40v-24h24v-8h-24v-24h-8v-8h-8v8h-16v-16h8v-8h-8v-8h-80v-16h56v-120h-8v-8h-8v8h-16v-16h8v-8h-8v-8h-120z" />
    <glyph glyph-name="g" unicode="g" 
d="M72 -152v8h8v-8h-8zM184 -152v8h8v-8h-8zM80 -144v8h8v-8h-8zM64 -104v8h8v-8h-8zM16 -96v8h8v-8h-8zM72 -96v8h8v-8h-8zM24 -88v8h8v-8h-8zM168 -160v24h-80v48h-8v8h-48v24h-24v-40h8v-8h48v-48h8v-8h96zM168 -128v72h-128v-16h56v-56h72zM16 -40v8h8v-8h-8zM184 -40v8
h8v-8h-8zM168 -48v24h-128v-24h128zM200 -128v96h-8v8h-16v-16h8v-8h-8v-80h24zM200 -16v16h-24v-16h24zM16 16v8h8v-8h-8zM128 16v8h8v-8h-8zM184 16v8h8v-8h-8zM240 16v8h8v-8h-8zM24 24v8h8v-8h-8zM224 8v24h-16v-24h16zM144 40v16h-24v-16h24zM256 40v16h-24v-16h24z
M288 64v8h8v-8h-8zM128 72v8h8v-8h-8zM184 72v8h8v-8h-8zM240 72v8h8v-8h-8zM296 72v8h8v-8h-8zM168 64v24h-16v-24h16zM200 8v16h-8v8h8v48h-8v8h-16v-16h8v-8h-8v-48h8v-8h16zM176 176v8h8v-8h-8zM128 184v8h8v-8h-8zM184 184v8h8v-8h-8zM136 192v8h8v-8h-8zM112 8v24h-80
v192h-24v-208h8v-8h96zM112 40v24h8v8h8v-8h16v16h-8v8h8v8h24v72h-56v56h-72v-184h72zM120 232v8h8v-8h-8zM16 240v8h8v-8h-8zM128 240v8h8v-8h-8zM200 96v96h-8v8h-48v48h-8v8h-96v-24h80v-48h8v-8h48v-80h24zM56 -168v56h-56v64h8v8h8v-8h16v16h-8v8h8v8h136v72h-16v-24
h-8v-8h-8v8h-16v-16h8v-8h-8v-8h-120v232h8v8h8v-8h16v16h-8v8h8v8h120v-56h56v-168h16v24h8v8h8v-8h16v16h-8v8h8v8h64v-8h-8v-8h-8v8h-40v-24h24v-8h-24v-24h-8v-8h-8v8h-16v-16h8v-8h-8v-8h-24v-136h-8v-8h-8v8h-16v-16h8v-8h-8v-8h-120z" />
    <glyph glyph-name="h" unicode="h" 
d="M184 16v8h8v-8h-8zM240 16v8h8v-8h-8zM192 24v8h8v-8h-8zM256 40v16h-24v-16h24zM288 64v8h8v-8h-8zM16 72v8h8v-8h-8zM240 72v8h8v-8h-8zM296 72v8h8v-8h-8zM24 80v8h8v-8h-8zM16 184v8h8v-8h-8zM72 184v8h8v-8h-8zM56 176v24h-16v-24h16zM88 208v16h-24v-16h24z
M176 232v8h8v-8h-8zM72 240v8h8v-8h-8zM184 240v8h8v-8h-8zM224 8v24h-24v216h-8v8h-96v-24h80v-216h8v-8h40zM32 176v16h-8v8h8v80h-24v-96h8v-8h16zM16 296v8h8v-8h-8zM72 296v8h8v-8h-8zM56 288v24h-16v-24h16zM88 320v72h-24v-72h24zM72 408v8h8v-8h-8zM128 408v8h8v-8
h-8zM112 400v24h-16v-24h16zM32 288v16h-8v8h8v136h-24v-152h8v-8h16zM56 320v80h8v8h8v-8h16v16h-8v8h8v8h24v16h-72v-128h16zM120 456v8h8v-8h-8zM16 464v8h8v-8h-8zM128 464v8h8v-8h-8zM144 432v40h-8v8h-96v-24h80v-24h24zM168 0v224h-72v-24h-8v-8h-8v8h-16v-16h8v-8
h-8v-8h-24v-80h-8v80h-24v-96h8v-8h-8v-8h-8v400h8v8h8v-8h16v16h-8v8h8v8h120v-64h-8v-8h-8v8h-16v-16h8v-8h-8v-8h-24v-80h-8v-8h-8v8h-16v-16h8v-8h-8v-8h-24v-72h16v24h8v8h8v-8h16v16h-8v8h8v8h120v-224h16v24h8v8h8v-8h16v16h-8v8h8v8h64v-8h-8v-8h-8v8h-40v-24h24v-8
h-24v-24h-8v-8h-8v8h-16v-16h8v-8h-8v-8h-64z" />
    <glyph glyph-name="i" unicode="i" horiz-adv-x="168" 
d="M72 16v8h8v-8h-8zM128 16v8h8v-8h-8zM80 24v8h8v-8h-8zM144 40v16h-24v-16h24zM64 64v8h8v-8h-8zM176 64v8h8v-8h-8zM16 72v8h8v-8h-8zM72 72v8h8v-8h-8zM128 72v8h8v-8h-8zM184 72v8h8v-8h-8zM24 80v8h8v-8h-8zM112 8v24h-24v48h-8v8h-48v192h-24v-208h8v-8h48v-48h8v-8
h40zM16 296v8h8v-8h-8zM72 296v8h8v-8h-8zM56 288v24h-16v-24h16zM32 288v16h-8v8h8v24h-24v-40h8v-8h16zM56 320v16h-16v-16h16zM64 344v8h8v-8h-8zM16 352v8h8v-8h-8zM72 352v8h8v-8h-8zM88 320v40h-8v8h-40v-24h24v-24h24zM56 0v56h-56v288h8v8h8v-8h16v16h-8v8h8v8h64
v-64h-8v-8h-8v8h-16v-16h8v-8h-8v-8h-24v-184h56v-56h16v24h8v8h8v-8h16v16h-8v8h8v8h64v-8h-8v-8h-8v8h-40v-24h24v-8h-24v-24h-8v-8h-8v8h-16v-16h8v-8h-8v-8h-64z" />
    <glyph glyph-name="j" unicode="j" horiz-adv-x="112" 
d="M-40 -152v8h8v-8h-8zM16 -152v8h8v-8h-8zM-32 -144v8h8v-8h-8zM0 -160v24h-24v80h-24v-96h8v-8h40zM0 -128v72h-16v-72h16zM-40 -40v8h8v-8h-8zM16 -40v8h8v-8h-8zM0 -48v24h-16v-24h16zM32 -128v96h-8v8h-16v-16h8v-8h-8v-80h24zM32 -16v16h-24v-16h24zM16 16v8h8v-8h-8
zM72 16v8h8v-8h-8zM56 8v24h-16v-24h16zM88 40v16h-24v-16h24zM120 64v8h8v-8h-8zM72 72v8h8v-8h-8zM128 72v8h8v-8h-8zM32 8v16h-8v8h8v248h-24v-264h8v-8h16zM16 296v8h8v-8h-8zM72 296v8h8v-8h-8zM56 288v24h-16v-24h16zM32 288v16h-8v8h8v24h-24v-40h8v-8h16zM56 320v16
h-16v-16h16zM64 344v8h8v-8h-8zM16 352v8h8v-8h-8zM72 352v8h8v-8h-8zM88 320v40h-8v8h-40v-24h24v-24h24zM-56 -168v120h8v8h8v-8h16v16h-8v8h8v8h24v360h8v8h8v-8h16v16h-8v8h8v8h64v-64h-8v-8h-8v8h-16v-16h8v-8h-8v-8h-24v-240h16v24h8v8h8v-8h16v16h-8v8h8v8h64v-8h-8
v-8h-8v8h-40v-24h24v-8h-24v-24h-8v-8h-8v8h-16v-16h8v-8h-8v-8h-24v-136h-8v-8h-8v8h-16v-16h8v-8h-8v-8h-64z" />
    <glyph glyph-name="k" unicode="k" 
d="M128 16v8h8v-8h-8zM240 16v8h8v-8h-8zM136 24v8h8v-8h-8zM256 40v16h-24v-16h24zM120 64v8h8v-8h-8zM288 64v8h8v-8h-8zM16 72v8h8v-8h-8zM72 72v8h8v-8h-8zM128 72v8h8v-8h-8zM240 72v8h8v-8h-8zM296 72v8h8v-8h-8zM24 80v8h8v-8h-8zM80 80v8h8v-8h-8zM224 8v24h-80v48
h-8v8h-48v24h-24v-40h8v-8h48v-48h8v-8h96zM16 128v8h8v-8h-8zM72 128v8h8v-8h-8zM184 128v8h8v-8h-8zM88 120v16h-8v8h-40v-24h24v8h8v-8h16zM168 120v24h-72v-24h72zM176 176v8h8v-8h-8zM128 184v8h8v-8h-8zM184 184v8h8v-8h-8zM136 192v8h8v-8h-8zM32 120v16h-8v8h8v80
h-24v-96h8v-8h16zM168 152v16h-56v56h-72v-72h128zM120 232v8h8v-8h-8zM16 240v8h8v-8h-8zM128 240v8h8v-8h-8zM200 152v40h-8v8h-48v48h-8v8h-96v-24h80v-48h8v-8h48v-24h24zM32 232v16h-8v8h8v24h-24v-40h8v-8h16zM16 296v8h8v-8h-8zM72 296v8h8v-8h-8zM56 288v24h-16v-24
h16zM88 320v72h-24v-72h24zM72 408v8h8v-8h-8zM128 408v8h8v-8h-8zM112 400v24h-16v-24h16zM32 288v16h-8v8h8v136h-24v-152h8v-8h16zM56 320v80h8v8h8v-8h16v16h-8v8h8v8h24v16h-72v-128h16zM120 456v8h8v-8h-8zM16 464v8h8v-8h-8zM128 464v8h8v-8h-8zM144 432v40h-8v8h-96
v-24h80v-24h24zM112 0v56h-56v56h-16v-24h-8v24h-24v-40h8v-8h-8v-8h-8v400h8v8h8v-8h16v16h-8v8h8v8h120v-64h-8v-8h-8v8h-16v-16h8v-8h-8v-8h-24v-80h-8v-8h-8v8h-16v-16h8v-8h-8v-8h-24v-16h112v-56h56v-64h-8v-8h-8v8h-16v-16h8v-8h-8v-8h-80v-16h56v-56h72v24h8v8h8v-8
h16v16h-8v8h8v8h64v-8h-8v-8h-8v8h-40v-24h24v-8h-24v-24h-8v-8h-8v8h-16v-16h8v-8h-8v-8h-120z" />
    <glyph glyph-name="l" unicode="l" horiz-adv-x="224" 
d="M16 16v8h8v-8h-8zM184 16v8h8v-8h-8zM24 24v8h8v-8h-8zM168 8v24h-136v24h-24v-40h8v-8h152zM200 40v16h-24v-16h24zM232 64v8h8v-8h-8zM16 72v8h8v-8h-8zM72 72v8h8v-8h-8zM184 72v8h8v-8h-8zM240 72v8h8v-8h-8zM56 64v24h-16v-24h16zM88 96v16h-24v-16h24zM72 128v8h8
v-8h-8zM128 128v8h8v-8h-8zM112 120v24h-16v-24h16zM120 400v8h8v-8h-8zM72 408v8h8v-8h-8zM128 408v8h8v-8h-8zM80 416v8h8v-8h-8zM32 64v16h-8v8h8v360h-24v-376h8v-8h16zM56 96v24h8v8h8v-8h16v16h-8v8h8v8h24v240h-56v56h-16v-352h16zM64 456v8h8v-8h-8zM16 464v8h8v-8
h-8zM72 464v8h8v-8h-8zM144 152v264h-8v8h-48v48h-8v8h-40v-24h24v-48h8v-8h48v-248h24zM0 0v456h8v8h8v-8h16v16h-8v8h8v8h64v-56h56v-288h-8v-8h-8v8h-16v-16h8v-8h-8v-8h-24v-24h-8v-8h-8v8h-16v-16h8v-8h-8v-8h-24v-16h128v24h8v8h8v-8h16v16h-8v8h8v8h64v-8h-8v-8h-8v8
h-40v-24h24v-8h-24v-24h-8v-8h-8v8h-16v-16h8v-8h-8v-8h-176z" />
    <glyph glyph-name="m" unicode="m" horiz-adv-x="336" 
d="M128 16v8h8v-8h-8zM184 16v8h8v-8h-8zM240 16v8h8v-8h-8zM296 16v8h8v-8h-8zM136 24v8h8v-8h-8zM248 24v8h8v-8h-8zM168 8v24h-24v24h-24v-40h8v-8h40zM168 40v16h-16v-16h16zM312 40v16h-24v-16h24zM176 64v8h8v-8h-8zM344 64v8h8v-8h-8zM16 72v8h8v-8h-8zM128 72v8h8
v-8h-8zM184 72v8h8v-8h-8zM296 72v8h8v-8h-8zM352 72v8h8v-8h-8zM24 80v8h8v-8h-8zM200 40v40h-8v8h-40v-24h24v-24h24zM144 64v16h-8v8h8v80h-24v-96h8v-8h16zM72 184v8h8v-8h-8zM128 184v8h8v-8h-8zM184 184v8h8v-8h-8zM80 192v8h8v-8h-8zM168 176v24h-16v-24h16zM200 208
v16h-24v-16h24zM64 232v8h8v-8h-8zM232 232v8h8v-8h-8zM16 240v8h8v-8h-8zM72 240v8h8v-8h-8zM184 240v8h8v-8h-8zM240 240v8h8v-8h-8zM144 176v16h-8v8h-48v48h-8v8h-40v-24h24v-48h8v-8h48v8h8v-8h16zM280 8v24h-24v216h-8v8h-40v-24h24v-216h8v-8h40zM112 0v168h-56v56
h-16v-136h-8v136h-24v-152h8v-8h-8v-8h-8v176h8v8h8v-8h16v16h-8v8h8v8h64v-56h72v24h8v8h8v-8h16v16h-8v8h8v8h64v-224h16v24h8v8h8v-8h16v16h-8v8h8v8h64v-8h-8v-8h-8v8h-40v-24h24v-8h-24v-24h-8v-8h-8v8h-16v-16h8v-8h-8v-8h-64v224h-16v-24h-8v-8h-8v8h-16v-16h8v-8h-8
v-8h-24v-72h56v-64h-8v-8h-8v8h-16v-16h8v-8h-8v-8h-64z" />
    <glyph glyph-name="n" unicode="n" 
d="M184 16v8h8v-8h-8zM240 16v8h8v-8h-8zM192 24v8h8v-8h-8zM256 40v16h-24v-16h24zM288 64v8h8v-8h-8zM16 72v8h8v-8h-8zM240 72v8h8v-8h-8zM296 72v8h8v-8h-8zM24 80v8h8v-8h-8zM176 176v8h8v-8h-8zM128 184v8h8v-8h-8zM184 184v8h8v-8h-8zM136 192v8h8v-8h-8zM120 232v8
h8v-8h-8zM16 240v8h8v-8h-8zM128 240v8h8v-8h-8zM224 8v24h-24v160h-8v8h-48v48h-8v8h-96v-24h80v-48h8v-8h48v-160h8v-8h40zM168 0v168h-56v56h-72v-136h-8v136h-24v-152h8v-8h-8v-8h-8v176h8v8h8v-8h16v16h-8v8h8v8h120v-56h56v-168h16v24h8v8h8v-8h16v16h-8v8h8v8h64v-8
h-8v-8h-8v8h-40v-24h24v-8h-24v-24h-8v-8h-8v8h-16v-16h8v-8h-8v-8h-64z" />
    <glyph glyph-name="o" unicode="o" 
d="M72 16v8h8v-8h-8zM128 16v8h8v-8h-8zM80 24v8h8v-8h-8zM144 40v16h-24v-16h24zM64 64v8h8v-8h-8zM288 64v8h8v-8h-8zM16 72v8h8v-8h-8zM72 72v8h8v-8h-8zM128 72v8h8v-8h-8zM184 72v8h8v-8h-8zM240 72v8h8v-8h-8zM296 72v8h8v-8h-8zM24 80v8h8v-8h-8zM168 64v24h-16v-24
h16zM248 80v8h8v-8h-8zM200 96v16h-24v-16h24zM232 120v8h8v-8h-8zM128 128v8h8v-8h-8zM184 128v8h8v-8h-8zM240 128v8h8v-8h-8zM136 136v8h8v-8h-8zM200 120v16h-8v8h-16v-16h8v-8h16zM112 8v24h-24v48h-8v8h-48v80h-24v-96h8v-8h48v-48h8v-8h40zM16 184v8h8v-8h-8zM72 184
v8h8v-8h-8zM56 176v24h-16v-24h16zM88 208v16h-24v-16h24zM112 40v24h8v8h8v-8h16v16h-8v8h8v8h24v16h-56v112h-16v-24h-8v-8h-8v8h-16v-16h8v-8h-8v-8h-24v-72h56v-56h16zM168 120v24h-24v80h-24v-96h8v-8h40zM168 152v72h-16v-72h16zM176 232v8h8v-8h-8zM72 240v8h8v-8h-8
zM128 240v8h8v-8h-8zM184 240v8h8v-8h-8zM144 232v16h-8v8h-40v-24h24v8h8v-8h16zM200 152v96h-8v8h-40v-24h24v-80h24zM56 0v56h-56v120h8v8h8v-8h16v16h-8v8h8v8h24v24h8v8h8v-8h16v16h-8v8h8v8h120v-112h56v-56h56v-8h-8v-8h-8v8h-48v48h-8v8h-40v-24h24v-48h8v-8h48v-8
h-64v56h-16v-24h-8v-8h-8v8h-16v-16h8v-8h-8v-8h-24v-24h-8v-8h-8v8h-16v-16h8v-8h-8v-8h-64z" />
    <glyph glyph-name="p" unicode="p" 
d="M16 -208v8h8v-8h-8zM128 -208v8h8v-8h-8zM24 -200v8h8v-8h-8zM120 -160v8h8v-8h-8zM72 -152v8h8v-8h-8zM128 -152v8h8v-8h-8zM80 -144v8h8v-8h-8zM112 -216v24h-80v136h-24v-152h8v-8h96zM112 -184v16h-56v112h-16v-128h72zM64 -48v8h8v-8h-8zM16 -40v8h8v-8h-8zM72 -40
v8h8v-8h-8zM144 -184v40h-8v8h-48v104h-8v8h-40v-24h24v-104h8v-8h48v-24h24zM32 -48v16h-8v8h8v24h-24v-40h8v-8h16zM16 16v8h8v-8h-8zM128 16v8h8v-8h-8zM240 16v8h8v-8h-8zM112 8v24h-72v-24h72zM224 8v24h-80v-8h-8v8h-16v-16h8v-8h96zM144 40v16h-24v-16h24zM256 40v16
h-24v-16h24zM288 64v8h8v-8h-8zM128 72v8h8v-8h-8zM184 72v8h8v-8h-8zM240 72v8h8v-8h-8zM296 72v8h8v-8h-8zM168 64v24h-16v-24h16zM176 176v8h8v-8h-8zM128 184v8h8v-8h-8zM184 184v8h8v-8h-8zM136 192v8h8v-8h-8zM32 8v16h-8v8h8v192h-24v-208h8v-8h16zM112 40v24h8v8h8
v-8h16v16h-8v8h8v8h24v72h-56v56h-72v-184h72zM120 232v8h8v-8h-8zM16 240v8h8v-8h-8zM128 240v8h8v-8h-8zM200 96v96h-8v8h-48v48h-8v8h-96v-24h80v-48h8v-8h48v-80h24zM0 -224v456h8v8h8v-8h16v16h-8v8h8v8h120v-56h56v-120h-8v-8h-8v8h-16v-16h8v-8h-8v-8h-24v-16h72v24
h8v8h8v-8h16v16h-8v8h8v8h64v-8h-8v-8h-8v8h-40v-24h24v-8h-24v-24h-8v-8h-8v8h-16v-16h8v-8h-8v-8h-192v-16h56v-112h56v-64h-8v-8h-8v8h-16v-16h8v-8h-8v-8h-120z" />
    <glyph glyph-name="q" unicode="q" 
d="M184 -208v8h8v-8h-8zM240 -208v8h8v-8h-8zM192 -200v8h8v-8h-8zM224 -216v24h-24v136h-24v-152h8v-8h40zM224 -184v128h-16v-128h16zM232 -48v8h8v-8h-8zM184 -40v8h8v-8h-8zM240 -40v8h8v-8h-8zM256 -184v152h-8v8h-40v-24h24v-136h24zM200 -48v16h-8v8h8v24h-24v-40h8
v-8h16zM72 16v8h8v-8h-8zM184 16v8h8v-8h-8zM240 16v8h8v-8h-8zM80 24v8h8v-8h-8zM200 8v16h-8v8h-16v-16h8v-8h16zM248 24v8h8v-8h-8zM64 64v8h8v-8h-8zM288 64v8h8v-8h-8zM16 72v8h8v-8h-8zM72 72v8h8v-8h-8zM240 72v8h8v-8h-8zM296 72v8h8v-8h-8zM24 80v8h8v-8h-8z
M176 176v8h8v-8h-8zM128 184v8h8v-8h-8zM184 184v8h8v-8h-8zM136 192v8h8v-8h-8zM168 8v24h-80v48h-8v8h-48v136h-24v-152h8v-8h48v-48h8v-8h96zM168 40v128h-56v56h-72v-128h56v-56h72zM120 232v8h8v-8h-8zM16 240v8h8v-8h-8zM128 240v8h8v-8h-8zM200 40v152h-8v8h-48v48
h-8v8h-96v-24h80v-48h8v-8h48v-136h24zM168 -224v224h-112v56h-56v176h8v8h8v-8h16v16h-8v8h8v8h120v-56h56v-200h16v56h8v8h8v-8h16v16h-8v8h8v8h64v-8h-8v-8h-8v8h-40v-24h24v-8h-24v-24h-8v24h-24v-40h8v-8h-8v-8h-24v-16h56v-176h-8v-8h-8v8h-16v-16h8v-8h-8v-8h-64z
" />
    <glyph glyph-name="r" unicode="r" horiz-adv-x="224" 
d="M128 16v8h8v-8h-8zM184 16v8h8v-8h-8zM136 24v8h8v-8h-8zM200 40v16h-24v-16h24zM232 64v8h8v-8h-8zM16 72v8h8v-8h-8zM184 72v8h8v-8h-8zM240 72v8h8v-8h-8zM24 80v8h8v-8h-8zM120 176v8h8v-8h-8zM72 184v8h8v-8h-8zM128 184v8h8v-8h-8zM80 192v8h8v-8h-8zM64 232v8h8
v-8h-8zM-40 240v8h8v-8h-8zM16 240v8h8v-8h-8zM72 240v8h8v-8h-8zM-32 248v8h8v-8h-8zM32 232v16h-8v8h-16v-16h8v-8h16zM168 8v24h-24v160h-8v8h-48v48h-8v8h-40v-24h24v-48h8v-8h48v-160h8v-8h40zM0 232v24h-24v24h-24v-40h8v-8h40zM0 264v16h-16v-16h16zM8 288v8h8v-8h-8
zM-40 296v8h8v-8h-8zM16 296v8h8v-8h-8zM32 264v40h-8v8h-40v-24h24v-24h24zM112 0v168h-56v56h-16v-136h-8v136h-24v-152h8v-8h-8v-8h-8v168h-56v64h8v8h8v-8h16v16h-8v8h8v8h64v-56h56v-56h56v-168h16v24h8v8h8v-8h16v16h-8v8h8v8h64v-8h-8v-8h-8v8h-40v-24h24v-8h-24v-24
h-8v-8h-8v8h-16v-16h8v-8h-8v-8h-64z" />
    <glyph glyph-name="s" unicode="s" 
d="M72 16v8h8v-8h-8zM184 16v8h8v-8h-8zM240 16v8h8v-8h-8zM80 24v8h8v-8h-8zM224 8v24h-24v-8h-8v8h-16v-16h8v-8h40zM256 40v16h-24v-16h24zM288 64v8h8v-8h-8zM16 72v8h8v-8h-8zM128 72v8h8v-8h-8zM184 72v8h8v-8h-8zM240 72v8h8v-8h-8zM296 72v8h8v-8h-8zM24 80v8h8v-8
h-8zM136 80v8h8v-8h-8zM200 40v40h-8v8h-16v-16h8v-8h-8v-24h24zM168 8v24h-80v80h-24v-96h8v-8h96zM168 40v16h-56v56h-16v-72h72zM120 120v8h8v-8h-8zM72 128v8h8v-8h-8zM128 128v8h8v-8h-8zM168 64v24h-24v48h-8v8h-40v-24h24v-48h8v-8h40zM16 184v8h8v-8h-8zM72 184v8h8
v-8h-8zM56 176v24h-16v-24h16zM88 208v16h-24v-16h24zM176 232v8h8v-8h-8zM72 240v8h8v-8h-8zM184 240v8h8v-8h-8zM200 96v152h-8v8h-96v-24h80v-136h24zM56 0v120h8v8h8v-8h16v16h-8v8h8v8h64v-56h16v128h-72v-24h-8v-8h-8v8h-16v-16h8v-8h-8v-8h-24v-80h-8v80h-24v-96h8
v-8h-8v-8h-8v120h8v8h8v-8h16v16h-8v8h8v8h24v24h8v8h8v-8h16v16h-8v8h8v8h120v-224h16v24h8v8h8v-8h16v16h-8v8h8v8h64v-8h-8v-8h-8v8h-40v-24h24v-8h-24v-24h-8v-8h-8v8h-16v-16h8v-8h-8v-8h-176z" />
    <glyph glyph-name="t" unicode="t" horiz-adv-x="224" 
d="M72 16v8h8v-8h-8zM184 16v8h8v-8h-8zM80 24v8h8v-8h-8zM200 40v16h-24v-16h24zM64 64v8h8v-8h-8zM232 64v8h8v-8h-8zM16 72v8h8v-8h-8zM72 72v8h8v-8h-8zM184 72v8h8v-8h-8zM240 72v8h8v-8h-8zM24 80v8h8v-8h-8zM-40 184v8h8v-8h-8zM72 184v8h8v-8h-8zM128 184v8h8v-8h-8
zM-32 192v8h8v-8h-8zM80 192v8h8v-8h-8zM168 8v24h-80v48h-8v8h-48v136h-24v-152h8v-8h48v-48h8v-8h96zM112 176v24h-24v24h-24v-40h8v-8h40zM112 208v16h-16v-16h16zM120 232v8h8v-8h-8zM-40 240v8h8v-8h-8zM72 240v8h8v-8h-8zM128 240v8h8v-8h-8zM0 232v24h-16v-24h16z
M32 232v24h-24v-24h24zM88 232v16h-8v8h-40v-24h24v8h8v-8h16zM144 208v40h-8v8h-40v-24h24v-24h24zM32 264v16h-24v-16h24zM16 296v8h8v-8h-8zM72 296v8h8v-8h-8zM56 288v24h-16v-24h16zM88 320v72h-24v-72h24zM72 408v8h8v-8h-8zM128 408v8h8v-8h-8zM112 400v24h-16v-24
h16zM32 288v16h-8v8h8v136h-24v-152h8v-8h16zM56 320v80h8v8h8v-8h16v16h-8v8h8v8h24v16h-72v-128h16zM120 456v8h8v-8h-8zM16 464v8h8v-8h-8zM128 464v8h8v-8h-8zM144 432v40h-8v8h-96v-24h80v-24h24zM56 0v56h-56v168h-16v-24h-8v24h-24v-40h8v-8h-8v-8h-8v64h8v8h8v-8h16
v16h-8v8h8v8h24v192h8v8h8v-8h16v16h-8v8h8v8h120v-64h-8v-8h-8v8h-16v-16h8v-8h-8v-8h-24v-80h-8v-8h-8v8h-16v-16h8v-8h-8v-8h-24v-16h112v-64h-8v-8h-8v8h-16v-16h8v-8h-8v-8h-64v56h-16v-128h56v-56h72v24h8v8h8v-8h16v16h-8v8h8v8h64v-8h-8v-8h-8v8h-40v-24h24v-8h-24
v-24h-8v-8h-8v8h-16v-16h8v-8h-8v-8h-120z" />
    <glyph glyph-name="u" unicode="u" 
d="M72 16v8h8v-8h-8zM184 16v8h8v-8h-8zM240 16v8h8v-8h-8zM80 24v8h8v-8h-8zM224 8v24h-24v-8h-8v8h-16v-16h8v-8h40zM256 40v16h-24v-16h24zM64 64v8h8v-8h-8zM288 64v8h8v-8h-8zM16 72v8h8v-8h-8zM72 72v8h8v-8h-8zM240 72v8h8v-8h-8zM296 72v8h8v-8h-8zM24 80v8h8v-8h-8
zM168 8v24h-80v48h-8v8h-48v80h-24v-96h8v-8h48v-48h8v-8h96zM16 184v8h8v-8h-8zM72 184v8h8v-8h-8zM56 176v24h-16v-24h16zM32 176v16h-8v8h8v24h-24v-40h8v-8h16zM56 208v16h-16v-16h16zM64 232v8h8v-8h-8zM176 232v8h8v-8h-8zM16 240v8h8v-8h-8zM72 240v8h8v-8h-8z
M184 240v8h8v-8h-8zM88 208v40h-8v8h-40v-24h24v-24h24zM56 0v56h-56v176h8v8h8v-8h16v16h-8v8h8v8h64v-64h-8v-8h-8v8h-16v-16h8v-8h-8v-8h-24v-72h56v-56h72v192h8v-192h24v208h-8v8h8v8h8v-224h16v24h8v8h8v-8h16v16h-8v8h8v8h64v-8h-8v-8h-8v8h-40v-24h24v-8h-24v-24h-8
v-8h-8v8h-16v-16h8v-8h-8v-8h-176z" />
    <glyph glyph-name="v" unicode="v" 
d="M16 16v8h8v-8h-8zM128 16v8h8v-8h-8zM240 16v8h8v-8h-8zM24 24v8h8v-8h-8zM248 24v8h8v-8h-8zM144 40v16h-24v-16h24zM288 64v8h8v-8h-8zM128 72v8h8v-8h-8zM184 72v8h8v-8h-8zM240 72v8h8v-8h-8zM296 72v8h8v-8h-8zM168 64v24h-16v-24h16zM128 184v8h8v-8h-8zM184 184v8
h8v-8h-8zM136 192v8h8v-8h-8zM200 96v96h-8v8h-16v-16h8v-8h-8v-80h24zM168 176v24h-24v24h-24v-40h8v-8h40zM168 208v16h-16v-16h16zM8 232v8h8v-8h-8zM176 232v8h8v-8h-8zM16 240v8h8v-8h-8zM128 240v8h8v-8h-8zM184 240v8h8v-8h-8zM200 208v40h-8v8h-40v-24h24v-24h24z
M0 0v232h8v-216h8v-8h96v24h-80v216h-8v8h8v8h8v-224h72v24h8v8h8v-8h16v16h-8v8h8v8h24v72h-56v64h8v8h8v-8h16v16h-8v8h8v8h64v-176h-8v-8h-8v8h-16v-16h8v-8h-8v-8h-24v-24h-8v-8h-8v8h-16v-16h8v-8h96v56h8v8h8v-8h16v16h-8v8h8v8h64v-8h-8v-8h-8v8h-40v-24h24v-8h-24
v-24h-8v24h-24v-40h8v-8h-8v-8h-232z" />
    <glyph glyph-name="w" unicode="w" horiz-adv-x="336" 
d="M16 16v8h8v-8h-8zM72 16v8h8v-8h-8zM184 16v8h8v-8h-8zM240 16v8h8v-8h-8zM24 24v8h8v-8h-8zM192 24v8h8v-8h-8zM88 40v16h-24v-16h24zM176 64v8h8v-8h-8zM344 64v8h8v-8h-8zM72 72v8h8v-8h-8zM128 72v8h8v-8h-8zM184 72v8h8v-8h-8zM296 72v8h8v-8h-8zM352 72v8h8v-8h-8z
M112 64v24h-16v-24h16zM224 8v24h-24v48h-8v8h-48v-8h-8v8h-16v-16h8v-8h48v-48h8v-8h40zM304 80v8h8v-8h-8zM256 40v72h-24v-72h24zM288 120v8h8v-8h-8zM184 128v8h8v-8h-8zM240 128v8h8v-8h-8zM296 128v8h8v-8h-8zM192 136v8h8v-8h-8zM256 120v16h-8v8h-16v-16h8v-8h16z
M72 184v8h8v-8h-8zM128 184v8h8v-8h-8zM80 192v8h8v-8h-8zM144 96v96h-8v8h-16v-16h8v-8h-8v-80h24zM112 176v24h-24v24h-24v-40h8v-8h40zM112 208v16h-16v-16h16zM224 120v24h-24v80h-24v-96h8v-8h40zM224 152v72h-16v-72h16zM8 232v8h8v-8h-8zM120 232v8h8v-8h-8zM232 232
v8h8v-8h-8zM16 240v8h8v-8h-8zM72 240v8h8v-8h-8zM128 240v8h8v-8h-8zM184 240v8h8v-8h-8zM240 240v8h8v-8h-8zM144 208v40h-8v8h-40v-24h24v-24h24zM256 152v96h-8v8h-40v-24h24v-80h24zM0 0v232h8v-216h8v-8h40v24h-24v216h-8v8h8v8h8v-224h16v24h8v8h8v-8h16v16h-8v8h8v8
h24v72h-56v64h8v8h8v-8h16v16h-8v8h8v8h64v-168h56v-56h16v72h-56v120h8v8h8v-8h16v16h-8v8h8v8h64v-112h56v-56h56v-8h-8v-8h-8v8h-48v48h-8v8h-40v-24h24v-48h8v-8h48v-8h-64v56h-16v-80h-8v-8h-8v8h-16v-16h8v-8h-8v-8h-64v56h-72v-24h-8v-8h-8v8h-16v-16h8v-8h-8v-8h-64
z" />
    <glyph glyph-name="x" unicode="x" 
d="M16 16v8h8v-8h-8zM72 16v8h8v-8h-8zM184 16v8h8v-8h-8zM240 16v8h8v-8h-8zM24 24v8h8v-8h-8zM192 24v8h8v-8h-8zM56 8v24h-24v24h-24v-40h8v-8h40zM56 40v16h-16v-16h16zM88 40v16h-24v-16h24zM256 40v16h-24v-16h24zM176 64v8h8v-8h-8zM288 64v8h8v-8h-8zM16 72v8h8v-8
h-8zM72 72v8h8v-8h-8zM128 72v8h8v-8h-8zM184 72v8h8v-8h-8zM240 72v8h8v-8h-8zM296 72v8h8v-8h-8zM56 64v24h-16v-24h16zM88 64v16h-8v8h-16v-16h8v-8h16zM112 64v24h-16v-24h16zM224 8v24h-24v48h-8v8h-48v-8h-8v8h-16v-16h8v-8h48v-48h8v-8h40zM144 96v16h-24v-16h24z
M64 120v8h8v-8h-8zM16 128v8h8v-8h-8zM72 128v8h8v-8h-8zM128 128v8h8v-8h-8zM184 128v8h8v-8h-8zM24 136v8h8v-8h-8zM168 120v24h-16v-24h16zM128 184v8h8v-8h-8zM184 184v8h8v-8h-8zM136 192v8h8v-8h-8zM200 152v40h-8v8h-16v-16h8v-8h-8v-24h24zM168 176v24h-24v8h24v16
h-48v-40h8v-8h40zM8 232v8h8v-8h-8zM176 232v8h8v-8h-8zM16 240v8h8v-8h-8zM128 240v8h8v-8h-8zM184 240v8h8v-8h-8zM136 248v8h8v-8h-8zM0 0v64h8v8h8v-8h16v16h-8v8h8v8h24v16h-56v120h8v-104h8v-8h48v-24h24v40h-8v8h-48v104h-8v8h8v8h8v-112h56v-56h16v24h8v8h8v-8h16
v16h-8v8h8v8h24v16h-56v64h8v8h8v-8h48v-24h24v40h-8v8h-48v8h64v-120h-8v-8h-8v8h-16v-16h8v-8h-8v-8h-24v-16h56v-56h16v24h8v8h8v-8h16v16h-8v8h8v8h64v-8h-8v-8h-8v8h-40v-24h24v-8h-24v-24h-8v-8h-8v8h-16v-16h8v-8h-8v-8h-64v56h-72v-24h-8v-8h-8v8h-16v-16h8v-8h-8
v-8h-64z" />
    <glyph glyph-name="y" unicode="y" 
d="M72 -152v8h8v-8h-8zM184 -152v8h8v-8h-8zM80 -144v8h8v-8h-8zM64 -104v8h8v-8h-8zM16 -96v8h8v-8h-8zM72 -96v8h8v-8h-8zM24 -88v8h8v-8h-8zM168 -160v24h-80v48h-8v8h-48v24h-24v-40h8v-8h48v-48h8v-8h96zM168 -128v72h-128v-16h56v-56h72zM16 -40v8h8v-8h-8zM184 -40v8
h8v-8h-8zM168 -48v24h-128v-24h128zM200 -128v96h-8v8h-16v-16h8v-8h-8v-80h24zM200 -16v16h-24v-16h24zM72 16v8h8v-8h-8zM128 16v8h8v-8h-8zM184 16v8h8v-8h-8zM240 16v8h8v-8h-8zM80 24v8h8v-8h-8zM224 8v24h-16v-24h16zM144 40v16h-24v-16h24zM256 40v16h-24v-16h24z
M64 64v8h8v-8h-8zM288 64v8h8v-8h-8zM16 72v8h8v-8h-8zM72 72v8h8v-8h-8zM128 72v8h8v-8h-8zM184 72v8h8v-8h-8zM240 72v8h8v-8h-8zM296 72v8h8v-8h-8zM24 80v8h8v-8h-8zM168 64v24h-16v-24h16zM200 8v16h-8v8h8v48h-8v8h-16v-16h8v-8h-8v-48h8v-8h16zM112 8v24h-24v48h-8v8
h-48v80h-24v-96h8v-8h48v-48h8v-8h40zM16 184v8h8v-8h-8zM72 184v8h8v-8h-8zM56 176v24h-16v-24h16zM32 176v16h-8v8h8v24h-24v-40h8v-8h16zM56 208v16h-16v-16h16zM64 232v8h8v-8h-8zM176 232v8h8v-8h-8zM16 240v8h8v-8h-8zM72 240v8h8v-8h-8zM184 240v8h8v-8h-8zM88 208
v40h-8v8h-40v-24h24v-24h24zM56 -168v56h-56v64h8v8h8v-8h16v16h-8v8h8v8h136v72h-16v-24h-8v-8h-8v8h-16v-16h8v-8h-8v-8h-64v56h-56v176h8v8h8v-8h16v16h-8v8h8v8h64v-64h-8v-8h-8v8h-16v-16h8v-8h-8v-8h-24v-72h56v-56h16v24h8v8h8v-8h16v16h-8v8h8v8h24v136h8v-136h24
v152h-8v8h8v8h8v-224h16v24h8v8h8v-8h16v16h-8v8h8v8h64v-8h-8v-8h-8v8h-40v-24h24v-8h-24v-24h-8v-8h-8v8h-16v-16h8v-8h-8v-8h-24v-136h-8v-8h-8v8h-16v-16h8v-8h-8v-8h-120z" />
    <glyph glyph-name="z" unicode="z" 
d="M72 16v8h8v-8h-8zM240 16v8h8v-8h-8zM80 24v8h8v-8h-8zM256 40v16h-24v-16h24zM288 64v8h8v-8h-8zM16 72v8h8v-8h-8zM128 72v8h8v-8h-8zM184 72v8h8v-8h-8zM240 72v8h8v-8h-8zM296 72v8h8v-8h-8zM24 80v8h8v-8h-8zM136 80v8h8v-8h-8zM224 8v24h-136v80h-24v-96h8v-8h152z
M120 120v8h8v-8h-8zM72 128v8h8v-8h-8zM128 128v8h8v-8h-8zM168 64v24h-24v48h-8v8h-40v-24h24v-48h8v-8h40zM176 232v8h8v-8h-8zM16 240v8h8v-8h-8zM184 240v8h8v-8h-8zM200 96v152h-8v8h-152v-24h136v-136h24zM56 0v120h8v8h8v-8h16v16h-8v8h8v8h64v-56h16v128h-128v-136
h-8v136h-24v-152h8v-8h-8v-8h-8v176h8v8h8v-8h16v16h-8v8h8v8h176v-176h-8v-8h-8v8h-16v-16h8v-8h-8v-8h-64v56h-16v-72h128v24h8v8h8v-8h16v16h-8v8h8v8h64v-8h-8v-8h-8v8h-40v-24h24v-8h-24v-24h-8v-8h-8v8h-16v-16h8v-8h-8v-8h-176z" />
    <glyph glyph-name="quoteleft" unicode="&#x2018;" horiz-adv-x="224" 
d="M72 352v8h8v-8h-8zM128 352v8h8v-8h-8zM184 352v8h8v-8h-8zM80 360v8h8v-8h-8zM168 344v24h-24v-8h-8v8h-16v-16h8v-8h40zM144 376v16h-24v-16h24zM168 376v16h-16v-16h16zM176 400v8h8v-8h-8zM128 408v8h8v-8h-8zM184 408v8h8v-8h-8zM200 376v40h-8v8h-40v-24h24v-24h24
zM112 344v24h-24v80h-24v-96h8v-8h40zM120 456v8h8v-8h-8zM72 464v8h8v-8h-8zM128 464v8h8v-8h-8zM56 336v120h8v8h8v-8h16v16h-8v8h8v8h64v-8h-8v-8h-8v8h-40v-24h24v-8h-24v-72h16v24h8v8h8v-8h16v16h-8v8h8v8h64v-64h-8v-8h-8v8h-16v-16h8v-8h-8v-8h-120z" />
    <glyph glyph-name="quoteright" unicode="&#x2019;" horiz-adv-x="224" 
d="M72 352v8h8v-8h-8zM184 352v8h8v-8h-8zM80 360v8h8v-8h-8zM64 400v8h8v-8h-8zM72 408v8h8v-8h-8zM128 408v8h8v-8h-8zM184 408v8h8v-8h-8zM136 416v8h8v-8h-8zM200 376v40h-8v8h-16v-16h8v-8h-8v-24h24zM168 400v24h-24v24h-24v-40h8v-8h40zM168 432v16h-16v-16h16z
M176 456v8h8v-8h-8zM128 464v8h8v-8h-8zM184 464v8h8v-8h-8zM200 432v40h-8v8h-40v-24h24v-24h24zM56 336v64h8v-48h8v-8h96v24h-80v48h-8v8h8v8h8v-56h72v16h-56v64h8v8h8v-8h16v16h-8v8h8v8h64v-120h-8v-8h-8v8h-16v-16h8v-8h-8v-8h-120z" />
    <glyph glyph-name="quotedblleft" unicode="&#x201c;" horiz-adv-x="392" 
d="M72 352v8h8v-8h-8zM128 352v8h8v-8h-8zM184 352v8h8v-8h-8zM240 352v8h8v-8h-8zM296 352v8h8v-8h-8zM352 352v8h8v-8h-8zM80 360v8h8v-8h-8zM168 344v24h-24v-8h-8v8h-16v-16h8v-8h40zM248 360v8h8v-8h-8zM304 360v8h8v-8h-8zM144 376v16h-24v-16h24zM168 376v16h-16v-16
h16zM336 344v24h-24v24h-24v-40h8v-8h40zM336 376v16h-16v-16h16zM176 400v8h8v-8h-8zM344 400v8h8v-8h-8zM128 408v8h8v-8h-8zM184 408v8h8v-8h-8zM296 408v8h8v-8h-8zM352 408v8h8v-8h-8zM200 376v40h-8v8h-40v-24h24v-24h24zM368 376v40h-8v8h-40v-24h24v-24h24zM112 344
v24h-24v80h-24v-96h8v-8h40zM280 344v24h-24v80h-24v-96h8v-8h40zM120 456v8h8v-8h-8zM288 456v8h8v-8h-8zM72 464v8h8v-8h-8zM128 464v8h8v-8h-8zM240 464v8h8v-8h-8zM296 464v8h8v-8h-8zM56 336v120h8v8h8v-8h16v16h-8v8h8v8h64v-8h-8v-8h-8v8h-40v-24h24v-8h-24v-72h16
v24h8v8h8v-8h16v16h-8v8h8v8h64v-64h-8v-8h-8v8h-16v-16h8v-8h-8v-8h-120zM224 336v120h8v8h8v-8h16v16h-8v8h8v8h64v-8h-8v-8h-8v8h-40v-24h24v-8h-24v-72h16v24h8v8h8v-8h16v16h-8v8h8v8h64v-64h-8v-8h-8v8h-16v-16h8v-8h-8v-8h-120z" />
    <glyph glyph-name="quotedblright" unicode="&#x201d;" horiz-adv-x="392" 
d="M72 352v8h8v-8h-8zM184 352v8h8v-8h-8zM240 352v8h8v-8h-8zM352 352v8h8v-8h-8zM80 360v8h8v-8h-8zM248 360v8h8v-8h-8zM64 400v8h8v-8h-8zM232 400v8h8v-8h-8zM72 408v8h8v-8h-8zM128 408v8h8v-8h-8zM184 408v8h8v-8h-8zM240 408v8h8v-8h-8zM296 408v8h8v-8h-8zM352 408
v8h8v-8h-8zM136 416v8h8v-8h-8zM200 376v40h-8v8h-16v-16h8v-8h-8v-24h24zM304 416v8h8v-8h-8zM368 376v40h-8v8h-16v-16h8v-8h-8v-24h24zM168 400v24h-24v24h-24v-40h8v-8h40zM168 432v16h-16v-16h16zM336 400v24h-24v24h-24v-40h8v-8h40zM336 432v16h-16v-16h16zM176 456
v8h8v-8h-8zM344 456v8h8v-8h-8zM128 464v8h8v-8h-8zM184 464v8h8v-8h-8zM296 464v8h8v-8h-8zM352 464v8h8v-8h-8zM200 432v40h-8v8h-40v-24h24v-24h24zM368 432v40h-8v8h-40v-24h24v-24h24zM56 336v64h8v-48h8v-8h96v24h-80v48h-8v8h8v8h8v-56h72v16h-56v64h8v8h8v-8h16v16
h-8v8h8v8h64v-120h-8v-8h-8v8h-16v-16h8v-8h-8v-8h-120zM224 336v64h8v-48h8v-8h96v24h-80v48h-8v8h8v8h8v-56h72v16h-56v64h8v8h8v-8h16v16h-8v8h8v8h64v-120h-8v-8h-8v8h-16v-16h8v-8h-8v-8h-120z" />
  </font>
</defs>
</svg>
